<?xml version="1.0" encoding="UTF-8" standalone="no"?>
<svg xmlns:svg="http://www.w3.org/2000/svg" xmlns="http://www.w3.org/2000/svg" width="630" height="630" viewBox="0 0 630 630" version="1.1">
  <g transform="translate(-56.611934,-184.36221)">
    <path fill="#a7a7a7" d="m 58.467329,810.92426 c 0,-10.37237 6.53079,-28.55017 15.29935,-42.58418 9.70782,-15.53729 28.965401,-35.11964 51.655121,-52.52627 7.21357,-5.53395 6.57284,-5.08564 22.23877,-15.56023 20.2393,-13.53245 55.34935,-32.58361 79.80676,-43.30416 19.72995,-8.64834 57.2268,-21.58721 62.55974,-21.58721 0.76988,0 3.09659,-0.67892 5.17046,-1.50872 7.3197,-2.92876 12.5713,-16.1286 13.89202,-34.91737 l 0.64689,-9.20257 -8.38455,-10.04931 c -7.66622,-9.18836 -11.59308,-14.62897 -20.80286,-28.82203 -9.85543,-15.1881 -22.91997,-47.26171 -24.69185,-60.61889 -0.56037,-4.22429 -1.0976,-5.21546 -3.27999,-6.05157 -10.15146,-3.88918 -15.7489,-9.08881 -20.96084,-19.47118 -6.6162,-13.17971 -8.62087,-36.5618 -4.2711,-49.81738 2.29242,-6.98599 4.4873,-10.89589 8.72413,-15.54098 2.11744,-2.32146 2.22102,-2.9999 1.45041,-9.5 -2.58899,-21.83821 -3.34954,-41.36055 -2.18394,-56.05862 3.87891,-48.91259 20.17112,-81.47548 50.89033,-101.71339 16.68129,-10.98968 34.4196,-16.74492 62.2113,-20.1846 32.20647,-3.98609 68.82401,0.75436 93.8318,12.14731 14.67849,6.68717 28.98155,17.91433 38.99893,30.61215 19.81832,25.12131 29.57328,66.42856 26.24603,111.13853 -0.69821,9.38224 -1.63714,20.17477 -2.08651,23.9834 -0.81425,6.90129 -0.80559,6.93815 2.55469,10.86388 7.03777,8.22205 10.02312,18.44949 9.84447,33.72599 -0.27308,23.35114 -10.37432,43.49379 -24.44339,48.74202 l -5.34465,1.99373 -1.18738,6.3748 c -4.9831,26.75313 -22.71761,61.14702 -45.76986,88.76506 l -7.88572,9.44759 0.64805,9.21931 c 1.18682,16.88381 6.49256,31.6953 12.30203,34.34227 1.23595,0.56314 6.42637,1.99946 11.53427,3.19182 35.45428,8.27628 97.76078,37.16683 137.59386,63.80012 15.66594,10.47459 15.02521,10.02628 22.23877,15.56023 22.46534,17.23449 41.43241,36.56563 52.11597,53.1163 7.31528,11.33263 13.49882,27.98884 14.54335,39.17447 l 0.58435,6.25763 -313.14461,0 -313.144601,0 0,-3.43795 z"/>
  </g>
</svg>
