<?xml version="1.0" encoding="utf-8"?>
<!-- Generator: Adobe Illustrator 18.1.1, SVG Export Plug-In . SVG Version: 6.00 Build 0)  -->
<svg version="1.1" id="Layer_1" xmlns="http://www.w3.org/2000/svg" xmlns:xlink="http://www.w3.org/1999/xlink" x="0px" y="0px"
	 viewBox="0 0 1024 1024" enable-background="new 0 0 1024 1024" xml:space="preserve">
<path fill-rule="evenodd" clip-rule="evenodd" fill="#F26D5B" d="M398.1,517.6v-52l74.2-33.4L398.1,517.6z"/>
<path fill-rule="evenodd" clip-rule="evenodd" fill="#ED2324" d="M399.2,513.8c0.6,0,1,0.5,1,1.1s-0.5,1.1-1,1.1c-0.6,0-1-0.5-1-1.1
	S398.6,513.8,399.2,513.8z"/>
<path fill="#607D8B" d="M235.7,510.7l-6.1,59c0,1.6,0.9,2.9,2.6,4c1.7,1.1,4.3,1.6,7.7,1.6h5.1c7.2,0,11-1.9,11.4-5.8l5.8-57.6
	c4.6-6.1,9.8-9.2,15.7-9.2c1.7,0,3.3,0.3,4.7,0.8c1.4,0.5,2.3,0.8,2.7,0.8c1.3,0,2.9-2,4.6-6.1c1.7-4.1,2.6-7.6,2.6-10.6
	c0-5.5-2.8-8.3-8.5-8.3c-7.9,0-15,4.6-21.1,13.7c-0.2-2.9-0.5-4.9-0.6-6.2c-0.2-1.3-0.7-2.5-1.5-3.7c-0.8-1.2-2-1.8-3.6-1.8
	c-6,0-11,0.6-15,1.8c-4,1.2-6,2.8-6,4.7l0.4,10.1C236.4,501.8,236.2,506.1,235.7,510.7L235.7,510.7z"/>
<path fill="#607D8B" d="M323.9,537.2c5.9,0.8,12.2,1.3,18.8,1.3c10.2,0,19.3-2.7,27.1-8.2c7.8-5.5,11.7-13.7,11.7-24.8
	c0-5.6-2.2-11.1-6.5-16.4c-2.3-2.9-5.9-5.2-10.8-7c-4.9-1.8-10.8-2.7-17.7-2.7c-14.6,0-26.5,4.7-35.8,14
	c-9.3,9.4-13.9,23.8-13.9,43.4c0,12.5,3.5,22.2,10.6,29.2c7,7,17.7,10.4,32.1,10.4c6.6,0,13.2-1,19.7-3c6.5-2,10.4-5.2,11.7-9.6
	c0.2-0.8,0.5-2.9,0.9-6.2c0.4-3.3,0.5-5.8,0.5-7.6c0-1.7-0.5-2.5-1.4-2.5c-0.4,0-1.9,0.7-4.6,2c-2.7,1.3-6.2,2.6-10.6,4
	c-4.3,1.3-9,2-14.1,2c-5.1,0-9.2-1.3-12.4-3.9C326,548.9,324.2,544.2,323.9,537.2L323.9,537.2z M355.5,508.9c0,3.1-1.7,5.9-5.1,8.2
	c-3.4,2.3-8.9,3.5-16.6,3.5h-8.7c3-13.4,9.5-20.2,19.5-20.2C351.9,500.5,355.5,503.3,355.5,508.9L355.5,508.9z"/>
<path fill="#607D8B" d="M515.7,574c3.3-1.6,5.1-3.9,5.6-6.9c0.8-4.9,1.3-8.3,1.3-10.1s-0.5-2.7-1.4-2.7c-0.1,0-0.8,0.2-2,0.5
	c-1.2,0.4-2.3,0.5-3.3,0.5c-3.6,0-5.4-2-5.4-5.9c0-1.2,3.7-36.1,11-104.6c0-1.6-0.9-2.9-2.6-4c-1.7-1.1-4.3-1.6-7.7-1.6h-5.1
	c-7.2,0-11,1.9-11.4,5.8l-4.5,41.8c-6-4.9-12.5-7.4-19.3-7.4c-12.4,0-22.5,5.3-30.3,16c-7.8,10.7-11.7,24.7-11.7,41.9
	c0,12.5,2.8,22.1,8.4,28.9c5.6,6.8,13.4,10.2,23.5,10.2c10.1,0,18-4.6,23.8-13.9c2.4,9.2,9.3,13.9,20.8,13.9
	C509,576.4,512.5,575.6,515.7,574z M488.5,504.8c-0.6,6.1-1.4,13.9-2.3,23.3c-1,9.4-1.5,14.7-1.6,15.9c-4.5,7.1-9.2,10.6-14.3,10.6
	c-9.4,0-14.1-6-14.1-18c0-12,1.8-21,5.5-27.1c3.7-6.1,8.8-9.1,15.4-9.1C481,500.5,484.8,501.9,488.5,504.8L488.5,504.8z"/>
<path fill="#607D8B" d="M615.6,574c3.3-1.6,5.1-3.9,5.6-6.9c0.8-4.9,1.3-8.3,1.3-10.1s-0.5-2.7-1.4-2.7c-0.1,0-0.8,0.2-2,0.5
	c-1.2,0.4-2.3,0.5-3.3,0.5c-3.6,0-5.4-1.9-5.4-5.8c0-1.2,1.1-12.2,3.4-33.1l3.3-31.3c0-3-3.5-4.5-10.5-4.5h-2.2
	c-4.3,0.1-7.1,0.7-8.3,1.6c-1.2,1-2.3,3.2-3.4,6.8c-6.7-6.4-14-9.5-21.9-9.5c-11.8,0-21.4,5.3-28.9,16
	c-7.5,10.7-11.2,24.7-11.2,41.9c0,12.5,2.6,22.1,7.9,28.9c5.3,6.8,12.4,10.2,21.3,10.2c5.1,0,9.7-1.3,14-3.8
	c4.3-2.5,7.8-5.8,10.6-9.9c2.4,9,9.3,13.5,20.8,13.5C609,576.4,612.4,575.6,615.6,574z M557.8,536.8c0-12,1.7-21,5-27.1
	c3.3-6.1,8-9.1,14.2-9.1c4.2,0,8.2,1.6,11.9,4.9c-1.2,6.1-1.9,10.1-2.2,11.8c-0.2,1.7-1.1,10.8-2.5,27.1c-4.5,7-9.2,10.4-14.1,10.4
	C561.9,554.8,557.8,548.8,557.8,536.8z"/>
<path fill="#607D8B" d="M680.1,502.1c3,1.2,4.6,1.8,4.9,1.8c1.7,0,3.7-1.8,6.1-5.3c2.3-3.5,3.5-6.3,3.5-8.2c0-3.8-2.8-6.6-8.3-8.4
	c-5.5-1.7-11.6-2.6-18.1-2.6c-10.6,0-19.2,2.9-25.8,8.6c-6.6,5.8-9.9,14-9.9,24.7c0,4.9,1.1,9,3.3,12.3c2.2,3.3,4.9,5.7,8,7.2
	c3.1,1.5,6.3,2.8,9.4,3.9c3.1,1.1,5.8,2.4,8,4c2.2,1.6,3.3,3.7,3.3,6.2c0,6-4,9-11.9,9c-5.5,0-11.1-1.5-16.6-4.5
	c-1.9-1.1-3-1.6-3.3-1.6c-2.7,0-4,5.4-4,16.2c0,4.4,4.2,7.6,12.6,9.5c4.3,1,8.8,1.4,13.4,1.4c11.1,0,20.1-3.1,26.9-9.4
	c6.9-6.2,10.3-14.9,10.3-25.9c0-6.1-1.7-11.1-5.1-14.9c-3.4-3.8-7-6.4-11-7.7c-4-1.3-7.7-2.8-11-4.6c-3.4-1.8-5.1-4-5.1-6.5
	c0-4.8,3.4-7.2,10.3-7.2C673.8,500.3,677.1,500.9,680.1,502.1z"/>
<path fill="#607D8B" d="M779.3,576.4c3.6,0,7-0.8,10.3-2.4c3.3-1.6,5.1-3.9,5.6-6.9c0.8-4.9,1.3-8.3,1.3-10.1s-0.5-2.7-1.4-2.7
	c-0.1,0-0.8,0.2-2,0.5c-1.2,0.4-2.3,0.5-3.3,0.5c-3.6,0-5.4-2-5.4-5.9l4.5-47.2c0-15.2-7.9-22.9-23.8-22.9c-4.8,0-9.6,1.2-14.5,3.5
	c-4.8,2.3-8.9,5.3-12.1,8.7l4.9-46.8c0-1.6-0.9-2.9-2.6-4c-1.7-1.1-4.3-1.6-7.7-1.6H728c-7.2,0-11,1.9-11.4,5.8l-13.2,124.7
	c0,1.6,0.9,2.9,2.6,4c1.7,1.1,4.3,1.6,7.7,1.6h5.1c7.2,0,11-1.9,11.4-5.8l6.1-58c4.8-6.8,10-10.3,15.5-10.3c6.5,0,9.8,3,9.8,9
	l-4.2,43.2C757.5,568.8,764.8,576.4,779.3,576.4L779.3,576.4z"/>
<path fill-rule="evenodd" clip-rule="evenodd" fill="#F26D5B" d="M400,281c51.4,0,93,41.6,93,92.8c0,51.3-41.6,92.8-93,92.8
	s-93-41.6-93-92.8C307,322.6,348.6,281,400,281z"/>
<path fill-rule="evenodd" clip-rule="evenodd" fill="#FFFFFF" d="M343.6,388.3h13.7c3.3,0,6,2.7,6,6v13.6c0,3.3-2.7,6-6,6h-13.7
	c-3.3,0-6-2.7-6-6v-13.6C337.6,391,340.3,388.3,343.6,388.3z"/>
<path fill-rule="evenodd" clip-rule="evenodd" fill="#FFFFFF" d="M375.3,358.3h13.6c3.3,0,6,2.7,6,6v43.6c0,3.3-2.7,6-6,6h-13.6
	c-3.3,0-6-2.7-6-6v-43.6C369.3,361,372,358.3,375.3,358.3z"/>
<path fill-rule="evenodd" clip-rule="evenodd" fill="#FFFFFF" d="M406.9,374.8h13.7c3.3,0,6,2.7,6,6v27.1c0,3.3-2.7,6-6,6h-13.7
	c-3.3,0-6-2.7-6-6v-27.1C400.9,377.5,403.6,374.8,406.9,374.8z"/>
<path fill-rule="evenodd" clip-rule="evenodd" fill="#FFFFFF" d="M439.3,335.7h13.6c3.3,0,6,2.7,6,6v66.2c0,3.3-2.7,6-6,6h-13.6
	c-3.3,0-6-2.7-6-6v-66.2C433.3,338.4,436,335.7,439.3,335.7z"/>
</svg>
