<?xml version="1.0" encoding="utf-8"?>
<!-- Generator: Adobe Illustrator 16.0.0, SVG Export Plug-In . SVG Version: 6.00 Build 0)  -->
<!DOCTYPE svg PUBLIC "-//W3C//DTD SVG 1.1//EN" "http://www.w3.org/Graphics/SVG/1.1/DTD/svg11.dtd">
<svg version="1.1" id="Layer_1" xmlns="http://www.w3.org/2000/svg" xmlns:xlink="http://www.w3.org/1999/xlink" x="0px" y="0px"
	 width="170px" height="45px" viewBox="0 0 170 45" enable-background="new 0 0 170 45" xml:space="preserve">
<g>
	<path fill="#1C3D4C" d="M131.154,2.025l4.056,0.005c0.14,0,0.252,0.114,0.252,0.254l-0.026,22.836c0,0.141-0.113,0.255-0.252,0.254
		l-4.057-0.006c-0.141,0-0.254-0.113-0.254-0.254l0.025-22.836C130.898,2.138,131.014,2.025,131.154,2.025z"/>
	<path fill="#1C3D4C" d="M141.377,2.037l4.057,0.005c0.14,0,0.254,0.114,0.254,0.254l-0.026,22.836c0,0.142-0.113,0.254-0.253,0.254
		l-4.057-0.005c-0.142,0-0.254-0.113-0.254-0.254l0.026-22.836C141.124,2.15,141.236,2.037,141.377,2.037z"/>
	<path fill="#1C3D4C" d="M159.4,25.73c-6.539-0.006-9.738-2.927-9.732-9.098c0.008-6.172,3.213-9.086,9.756-9.079
		c6.542,0.007,9.739,2.929,9.73,9.101C169.148,22.826,165.945,25.74,159.4,25.73z M159.42,10.042
		c-3.447-0.004-5.136,2.114-5.143,6.597c-0.004,4.483,1.682,6.603,5.127,6.608c3.447,0.003,5.139-2.114,5.145-6.596
		C164.553,12.167,162.868,10.045,159.42,10.042z"/>
	<path fill="#1C3D4C" d="M126.277,17.413h-0.004v0.085c0,0.14-0.08,0.253-0.223,0.253l-13.936-0.016
		c0.007,4.13,2.417,5.428,4.645,5.46c3.445,0.002,4.323-1.252,4.555-1.516c0.233-0.265,0.604-0.55,1.227-0.549
		c0.625,0,2.63,0.002,2.79,0.003c0.157,0,0.308,0.156,0.308,0.311c-0.002,2.82-2.691,4.253-8.89,4.248c0-0.004,0-0.008,0-0.008
		c-6.211-0.043-9.249-3.353-9.24-9.099c0.007-6.171,3.446-9.085,9.358-9.079c5.939,0.007,9.43,2.816,9.424,9.101
		C126.289,16.883,126.285,17.151,126.277,17.413z M116.869,9.993c-3.768-0.004-4.748,2.801-4.75,5.441c0,0.002,0,0.009,0,0.017
		l9.508,0.012C121.627,12.833,120.79,9.998,116.869,9.993z"/>
	<path fill="#1C3D4C" d="M81.53,25.059c0,0.142-0.114,0.254-0.254,0.254l-3.971-0.004c-0.14,0-0.253-0.115-0.253-0.254l0.002-1.599
		c-1.971,1.33-3.387,2.185-6.818,2.18c-4.929-0.004-7.179-2.742-7.175-5.307c0.003-3.242,2.822-5.354,7.356-5.348
		c3.383,0.004,5.938,0.006,6.646,0.007l0.001-0.694c0.004-3.316-1.809-4.355-4.276-4.358c-1.622-0.002-3.262,0.678-3.55,1.067
		c-0.728,0.794-1.104,1.014-1.663,1.013c-0.507,0-2.32,0.002-2.625,0.002c-0.304,0-0.393-0.142-0.393-0.395s0-0.316,0-0.452
		c0.001-1.606,1.604-3.753,8.516-3.745c3.249,0.003,8.303,0.887,8.438,6.261c0.02,0.037,0.031,0.077,0.031,0.12L81.53,25.059z
		 M71.006,17.491c-2.366-0.002-3.326,1.405-3.327,2.899c-0.002,1.495,1.405,2.792,3.546,2.795c2.995,0.004,5.542-1.743,5.832-1.948
		l0.004-3.741C75.419,17.496,72.61,17.492,71.006,17.491z"/>
	<path fill="#1C3D4C" d="M61.353,10.741h-0.361c-0.02,0.012-0.04,0.021-0.061,0.021c-1.115-0.001-2.002-0.172-2.746-0.173
		c-3.257-0.004-5.079,3.135-5.369,3.676l-0.013,10.76c0,0.14-0.113,0.252-0.253,0.252l-4.056-0.004c-0.14,0-0.253-0.112-0.253-0.254
		l0.02-17c0-0.14,0.114-0.253,0.253-0.253L52.57,7.77c0.14,0,0.253,0.113,0.253,0.254l-0.003,2.644
		c2.157-1.766,4.002-3.188,7.942-3.224c0.002-0.002,0.004-0.004,0.004-0.004l0.591,0.001c0.14,0,0.254,0.114,0.253,0.255
		l-0.003,2.791C61.606,10.628,61.493,10.741,61.353,10.741z"/>
	<path fill="#1C3D4C" d="M105.327,8.118l-0.401,0.853l0,0l-0.561,1.195l-0.441,0.941l0,0l-6.255,13.32
		c-0.235,0.5-0.834,0.902-1.341,0.901h-0.646l-1.801-0.003l-0.646-0.002c-0.506,0-1.104-0.402-1.34-0.902l-6.224-13.336l0,0
		l-0.439-0.942l-0.559-1.197l0,0l-0.398-0.854c-0.073-0.158-0.017-0.287,0.125-0.287l0.78,0.001l0.951,0.001l1.816,0.002
		c0.572,0,1.262,0.513,1.535,1.141l5.303,12.207l5.333-12.194c0.274-0.627,0.964-1.139,1.538-1.138l1.814,0.002l0.951,0.001
		l0.778,0.001C105.346,7.832,105.4,7.96,105.327,8.118z"/>
</g>
<path fill="#71B6DD" d="M48.426,39.971c0.677,0.396,1.579,0.594,2.703,0.594c1.125,0.002,2-0.191,2.625-0.582
	c0.625-0.39,0.939-0.891,0.939-1.504c0.001-1.09-0.825-1.814-2.479-2.17l-1.936-0.418c-0.595-0.133-1.015-0.291-1.259-0.479
	c-0.245-0.188-0.366-0.428-0.366-0.719c0-0.295,0.177-0.539,0.53-0.739c0.353-0.199,0.875-0.298,1.566-0.298
	c1.19,0.001,2.042,0.421,2.555,1.256c0.06,0.097,0.121,0.145,0.181,0.145l0.976,0.002c0.136,0,0.189-0.058,0.159-0.172
	c-0.206-0.668-0.639-1.201-1.299-1.603c-0.66-0.399-1.527-0.601-2.602-0.603c-1.074-0.002-1.918,0.192-2.534,0.582
	c-0.616,0.391-0.924,0.894-0.924,1.506c-0.001,1.076,0.825,1.799,2.478,2.164l1.936,0.422c0.595,0.129,1.014,0.287,1.259,0.477
	c0.244,0.189,0.366,0.432,0.366,0.727c0,0.297-0.18,0.541-0.538,0.734c-0.357,0.195-0.903,0.293-1.634,0.293
	c-1.291-0.002-2.192-0.421-2.707-1.259c-0.065-0.091-0.128-0.136-0.188-0.136l-0.976-0.002c-0.111,0-0.167,0.037-0.167,0.109
	c0,0.014,0.002,0.03,0.007,0.055C47.306,39.035,47.749,39.574,48.426,39.971z"/>
<path fill="#71B6DD" d="M57.482,37.484c0.373,0.97,0.78,1.645,1.224,2.025c0.443,0.383,1.068,0.574,1.875,0.575
	c-0.188,0.69-0.413,1.164-0.675,1.423c-0.262,0.26-0.642,0.389-1.138,0.389c-0.497-0.002-1.002-0.097-1.517-0.282
	c-0.106-0.035-0.159,0.003-0.159,0.116l-0.001,0.683c0,0.071,0.053,0.134,0.158,0.185l0.212,0.066
	c0.454,0.141,0.951,0.213,1.49,0.214c0.771,0.001,1.396-0.222,1.873-0.662c0.477-0.442,0.859-1.151,1.148-2.129l2.073-7.043
	c0.009-0.019,0.015-0.037,0.015-0.056c0-0.059-0.048-0.088-0.144-0.088l-1.036-0.002c-0.126,0-0.205,0.047-0.235,0.143l-1.785,6.068
	c-0.509,0-0.91-0.123-1.202-0.371c-0.292-0.247-0.552-0.659-0.778-1.237l-1.72-4.466c-0.03-0.096-0.105-0.143-0.227-0.143
	l-1.043-0.002c-0.09,0-0.136,0.029-0.136,0.088c0,0.02,0.004,0.037,0.015,0.055L57.482,37.484z"/>
<path fill="#71B6DD" d="M66.507,39.99c0.678,0.396,1.579,0.595,2.704,0.596c1.124,0.002,2-0.191,2.625-0.583
	c0.626-0.39,0.939-0.892,0.94-1.504c0.001-1.091-0.825-1.815-2.479-2.17l-1.936-0.419c-0.595-0.133-1.014-0.291-1.258-0.479
	c-0.245-0.188-0.366-0.427-0.366-0.72s0.177-0.539,0.53-0.737c0.353-0.199,0.875-0.301,1.566-0.301
	c1.19,0.002,2.042,0.424,2.555,1.258c0.061,0.096,0.121,0.145,0.181,0.145l0.976,0.001c0.136,0,0.189-0.056,0.159-0.171
	c-0.206-0.667-0.639-1.202-1.299-1.604c-0.66-0.398-1.527-0.601-2.601-0.603c-1.075-0.001-1.919,0.192-2.535,0.583
	c-0.616,0.39-0.924,0.893-0.924,1.506c-0.001,1.076,0.825,1.798,2.478,2.162l1.936,0.424c0.595,0.129,1.015,0.288,1.259,0.477
	c0.245,0.189,0.367,0.432,0.366,0.728c0,0.295-0.179,0.54-0.537,0.733c-0.358,0.194-0.903,0.293-1.634,0.293
	c-1.291-0.002-2.193-0.422-2.706-1.258c-0.065-0.091-0.128-0.137-0.189-0.137l-0.975-0.002c-0.111,0-0.167,0.037-0.167,0.109
	c0,0.014,0.002,0.031,0.008,0.054C65.388,39.057,65.83,39.596,66.507,39.99z"/>
<path fill="#71B6DD" d="M75.951,39.748c0.586,0.564,1.377,0.848,2.37,0.85c0.721,0,1.341-0.093,1.861-0.277
	c0.101-0.045,0.151-0.106,0.151-0.185v-0.682c0-0.114-0.05-0.151-0.151-0.116l-0.219,0.074c-0.439,0.136-0.936,0.205-1.491,0.202
	c-0.63,0-1.123-0.177-1.478-0.527c-0.354-0.354-0.532-0.875-0.531-1.563l0.004-3.627l3.162,0.002c0.101,0,0.151-0.045,0.151-0.142
	v-0.694c0-0.096-0.05-0.144-0.15-0.144l-3.163-0.003l0.002-2.161c0-0.096-0.05-0.144-0.15-0.144l-1.09-0.002
	c-0.1,0-0.151,0.048-0.151,0.144l-0.007,6.769C75.071,38.441,75.364,39.186,75.951,39.748z"/>
<path fill="#71B6DD" d="M88.266,40.021c0.643-0.398,1.064-0.935,1.272-1.605c0.03-0.109-0.021-0.164-0.151-0.164h-0.976
	c-0.065-0.001-0.129,0.043-0.188,0.134c-0.516,0.837-1.343,1.253-2.484,1.253c-0.719-0.003-1.314-0.212-1.782-0.631
	c-0.468-0.418-0.746-1.05-0.83-1.895l6.338,0.008c0.206,0,0.31-0.094,0.31-0.279v-0.349c0.002-1.136-0.373-2.048-1.125-2.736
	c-0.754-0.688-1.728-1.034-2.918-1.036c-1.192-0.002-2.16,0.336-2.898,1.01c-0.74,0.674-1.11,1.646-1.112,2.914
	c-0.001,1.271,0.367,2.25,1.105,2.938c0.737,0.69,1.669,1.034,2.793,1.034C86.742,40.62,87.625,40.421,88.266,40.021z
	 M83.969,34.312c0.474-0.412,1.063-0.617,1.766-0.617c0.705,0,1.311,0.226,1.818,0.674c0.51,0.447,0.786,1.037,0.831,1.77
	l-5.257-0.008C83.213,35.333,83.494,34.727,83.969,34.312z"/>
<path fill="#71B6DD" d="M92.372,40.4l1.09,0.002c0.101,0,0.149-0.045,0.149-0.137l0.006-5.097c0-0.026,0.1-0.151,0.296-0.375
	c0.196-0.222,0.495-0.46,0.894-0.711c0.399-0.252,0.824-0.377,1.279-0.377c0.453,0,0.841,0.19,1.16,0.565
	c0.318,0.379,0.479,0.936,0.479,1.672l-0.004,4.326c0,0.092,0.049,0.137,0.149,0.138l1.09,0.001c0.103,0,0.149-0.045,0.149-0.137
	l0.009-5.098c0-0.025,0.098-0.15,0.295-0.375c0.194-0.222,0.495-0.459,0.894-0.711c0.397-0.251,0.823-0.376,1.278-0.376
	c0.453,0,0.84,0.188,1.159,0.567c0.318,0.375,0.479,0.934,0.479,1.669l-0.006,4.327c0,0.092,0.053,0.136,0.151,0.137l1.09,0.001
	c0.101,0,0.151-0.045,0.151-0.136l0.004-4.327c0.002-1.026-0.271-1.818-0.818-2.376c-0.545-0.557-1.277-0.836-2.195-0.838
	c-0.473,0-0.928,0.1-1.361,0.299s-0.758,0.395-0.969,0.586c-0.213,0.189-0.393,0.384-0.537,0.578
	c-0.237-0.469-0.58-0.829-1.035-1.085c-0.453-0.255-0.973-0.384-1.559-0.384c-0.584,0-1.119,0.127-1.604,0.381
	c-0.186,0.095-0.365,0.207-0.532,0.34c-0.17,0.131-0.282,0.222-0.334,0.271c-0.052,0.051-0.097,0.09-0.125,0.114l-0.142-0.764
	c-0.012-0.095-0.066-0.142-0.168-0.142L92.38,32.93c-0.101,0-0.151,0.047-0.151,0.143l-0.008,7.189
	C92.221,40.355,92.271,40.4,92.372,40.4L92.372,40.4z"/>
<path fill="#71B6DD" d="M108.163,40.038c0.677,0.396,1.578,0.595,2.702,0.596c1.126,0.002,2-0.192,2.625-0.583
	c0.626-0.389,0.939-0.891,0.939-1.505c0.002-1.09-0.824-1.813-2.479-2.169l-1.937-0.419c-0.596-0.131-1.015-0.291-1.258-0.479
	c-0.242-0.187-0.367-0.426-0.365-0.719c0-0.293,0.176-0.539,0.528-0.738c0.354-0.198,0.877-0.299,1.567-0.299
	c1.188,0.002,2.041,0.422,2.555,1.258c0.061,0.096,0.121,0.144,0.182,0.144l0.977,0.001c0.136,0,0.189-0.057,0.158-0.171
	c-0.207-0.667-0.64-1.202-1.301-1.603c-0.658-0.398-1.525-0.602-2.601-0.604c-1.073-0.001-1.918,0.193-2.534,0.583
	c-0.615,0.39-0.925,0.894-0.925,1.506c-0.002,1.076,0.823,1.798,2.479,2.162l1.934,0.425c0.597,0.127,1.016,0.287,1.262,0.477
	c0.243,0.188,0.365,0.431,0.365,0.727c0,0.295-0.18,0.54-0.539,0.734c-0.357,0.193-0.902,0.291-1.635,0.291
	c-1.289-0.002-2.191-0.422-2.706-1.258c-0.064-0.09-0.128-0.136-0.188-0.136l-0.977-0.002c-0.109,0-0.165,0.037-0.165,0.109
	c0,0.014,0.002,0.03,0.006,0.054C107.041,39.104,107.484,39.643,108.163,40.038z"/>
<g>
	<g>
		<path fill="#46A1CF" d="M15.64,21.94c-3.244,1.121-8.623,4.175-14.991,6.757c1.757,2.988,5.028,5.033,8.726,5.033
			c5.516,0,9.987-4.414,9.987-9.861c0-0.865-0.12-1.747-0.338-2.599C17.829,21.309,16.664,21.534,15.64,21.94z M16.28,21.318
			c0.838-0.268,1.652-0.654,2.407-1.126c-0.406-1.099-0.979-2.116-1.681-2.945c-2.084-2.703-6.699-6.817-11.161-12.006
			c-2.334,2.573-3.293,6.276-2.151,9.746C5.399,20.167,11.034,23.001,16.28,21.318z M22.747,21.773
			c-0.831-0.267-1.711-0.425-2.594-0.483c-0.324,1.123-0.465,2.272-0.391,3.347c0.077,3.398,1.362,9.404,1.881,16.192
			c3.409-0.733,6.377-3.168,7.517-6.631C30.864,29.02,27.994,23.457,22.747,21.773z M35.75,15.731
			c-4.462-3.201-10.708-2.224-13.951,2.181c-0.519,0.704-0.947,1.488-1.277,2.308c0.983,0.655,2.052,1.143,3.113,1.407
			c3.296,0.977,9.479,1.626,16.178,3.236C40.17,21.428,38.74,17.876,35.75,15.731z"/>
	</g>
</g>
<path fill="#FAB80F" d="M21.931,17.061c-0.582,0.916-1.383,1.767-2.317,2.489c-0.688-0.564-1.31-1.209-1.829-1.914
	c-3.242-4.405-2.253-10.57,2.209-13.771c2.991-2.145,6.854-2.391,10.054-0.993C26.428,8.665,23.892,14.269,21.931,17.061z"/>
</svg>
