<svg width="10" height="10" viewBox="0 0 10 10" fill="none" xmlns="http://www.w3.org/2000/svg">
                  <path
                    fillRule="evenodd"
                    clipRule="evenodd"
                    d="M0.470016 9.53003C0.612862 9.6672 0.801988 9.74572 0.999985 9.75003C1.19883 9.74986 1.3895 9.67072 1.53001 9.53003L5.00002 6.06003L8.47002 9.53003C8.61286 9.6672 8.80199 9.74572 8.99998 9.75003C9.19883 9.74986 9.3895 9.67072 9.53001 9.53003C9.60077 9.46108 9.65696 9.37865 9.69536 9.28763C9.73376 9.1966 9.75359 9.09882 9.75359 9.00003C9.75359 8.90124 9.73376 8.80343 9.69536 8.7124C9.65696 8.62138 9.60077 8.53898 9.53001 8.47003L6.06001 5.00003L9.53001 1.53003C9.60077 1.46108 9.65696 1.37865 9.69536 1.28763C9.73376 1.1966 9.75359 1.09882 9.75359 1.00003C9.75359 0.901237 9.73376 0.803428 9.69536 0.712402C9.65696 0.621376 9.60077 0.538977 9.53001 0.470032C9.46107 0.399274 9.37861 0.343024 9.28758 0.304626C9.19656 0.266229 9.09878 0.24646 8.99998 0.24646C8.90119 0.24646 8.80341 0.266229 8.71239 0.304626C8.62136 0.343024 8.53896 0.399274 8.47002 0.470032L5.00002 3.94003L1.53001 0.470032C1.46107 0.399274 1.37861 0.343024 1.28758 0.304626C1.19656 0.266229 1.09878 0.24646 0.999985 0.24646C0.901191 0.24646 0.803413 0.266229 0.712387 0.304626C0.621361 0.343024 0.538962 0.399274 0.470016 0.470032C0.329566 0.610657 0.250656 0.80128 0.250656 1.00003C0.250656 1.19878 0.329566 1.3894 0.470016 1.53003L3.94002 5.00003L0.470016 8.47003C0.329566 8.61066 0.250656 8.80128 0.250656 9.00003C0.250656 9.19878 0.329566 9.3894 0.470016 9.53003Z"
                  />
                </svg>