<?xml version="1.0" encoding="UTF-8"?>
<svg width="844px" height="593px" viewBox="0 0 844 593" version="1.1" xmlns="http://www.w3.org/2000/svg" xmlns:xlink="http://www.w3.org/1999/xlink">
    <!-- Generator: Sketch 49.3 (51167) - http://www.bohemiancoding.com/sketch -->
    <title>query</title>
    <desc>Created with Sketch.</desc>
    <defs>
        <linearGradient x1="6.79755848%" y1="6.97834596%" x2="96.39291%" y2="83.3458055%" id="linearGradient-1">
            <stop stop-color="#ADB4D8" offset="0%"></stop>
            <stop stop-color="#C9D6E5" offset="13.83%"></stop>
            <stop stop-color="#E2E9F1" offset="62.03%"></stop>
            <stop stop-color="#B6BFDC" offset="100%"></stop>
        </linearGradient>
        <path d="M0.959,4.041 C1.133,7.338 3.777,11.181 6.867,12.623 C9.957,14.066 12.319,12.563 12.144,9.266 C11.971,5.969 9.326,2.126 6.237,0.684 C3.148,-0.759 0.785,0.744 0.959,4.041 Z" id="path-2"></path>
        <linearGradient x1="53.75089%" y1="100.65642%" x2="47.5210938%" y2="-0.729023612%" id="linearGradient-4">
            <stop stop-color="#ADB4D8" offset="0%"></stop>
            <stop stop-color="#C9D6E5" offset="13.83%"></stop>
            <stop stop-color="#E2E9F1" offset="62.03%"></stop>
            <stop stop-color="#B6BFDC" offset="100%"></stop>
        </linearGradient>
        <path d="M11.957,1.484 C11.957,1.484 6.574,-0.343 4.32,0.433 C1.72,1.329 -0.654,2.726 0.886,7.792 C2.175,12.031 4.28,15.252 7.913,19.262 C11.379,23.085 16.096,26.909 16.096,26.909 L13.803,16.77 C13.803,16.77 13.297,17.709 11.475,16.395 C9.358,14.866 7.435,12.649 5.763,9.959 C3.903,6.964 3.801,4.067 4.249,3.813 C4.941,3.421 4.533,3.766 6.373,4.289 C8.171,4.799 10.031,6.328 10.737,6.71 C11.729,7.247 11.892,8.078 11.892,8.078 L11.957,1.484 Z" id="path-5"></path>
        <path d="M3.402,2.568 C-1.173,4.834 -1.029,8.552 3.723,10.874 C8.472,13.196 16.034,13.24 20.606,10.974 C25.18,8.707 25.036,4.988 20.286,2.667 C15.534,0.345 7.978,0.301 3.402,2.568 Z" id="path-7"></path>
        <linearGradient x1="83.0889881%" y1="90.0438526%" x2="27.5571442%" y2="20.81239%" id="linearGradient-9">
            <stop stop-color="#4E4D57" offset="17.2%"></stop>
            <stop stop-color="#35343F" offset="32.8%"></stop>
            <stop stop-color="#000000" offset="61.83%"></stop>
        </linearGradient>
    </defs>
    <g id="query" stroke="none" stroke-width="1" fill="none" fill-rule="evenodd">
        <g id="Layer_1" transform="translate(167.000000, 28.000000)">
            <g id="desk" transform="translate(0.000000, 101.000000)" fill-rule="nonzero">
                <path d="M502.141,362.828 L370.998,295.665 C370.794,295.561 370.594,295.471 370.393,295.377 L417.319,271.676 C428.527,266.076 428.739,257.047 417.794,251.506 L297.438,191.237 C286.493,185.691 268.535,185.736 257.331,191.332 L8.721,316.89 C-2.483,322.488 -2.693,331.516 8.249,337.063 L128.608,397.332 C139.55,402.877 157.508,402.832 168.713,397.238 L235.15,363.683 L365.942,430.664 C376.884,436.209 394.842,436.164 406.047,430.57 L501.667,382.998 C512.874,377.398 513.086,368.369 502.141,362.828 Z" id="Shape" fill="#95BFE8" opacity="0.2"></path>
                <g id="Group" transform="translate(21.000000, 141.000000)">
                    <path d="M6.5,189 C6.166,191.398 5.211,196.914 2.81,196.584 C0.41,196.253 0.67,188.899 1,186.5 L21,6.667 C21.331,4.271 26.059,1.787 28.461,2.12 C30.857,2.451 35.142,5.026 34.811,7.422 L6.5,189 Z" id="Shape" fill="#95A5D1"></path>
                    <path d="M134,254 C133.823,256.414 132.726,261.376 130.309,261.198 C127.893,261.023 127.827,256.415 128,254 L136.051,69.348 C136.226,66.935 140.949,65.31 143.367,65.485 C145.781,65.66 150.219,67.953 150.045,70.366 L134,254 Z" id="Shape" fill="#95A5D1"></path>
                    <path d="M143.367,66.484 C140.949,66.309 136.225,67.934 136.051,70.347 L134.528,99.434 C135.899,101.505 138.16,102.956 140.829,103.142 C143.571,103.335 146.081,102.147 147.725,100.192 L150.046,71.365 C150.219,68.952 145.781,66.659 143.367,66.484 Z" id="Shape" fill="#FFFFFF"></path>
                    <path d="M143.367,64.859 C140.949,64.684 136.225,66.309 136.051,68.722 L134.528,97.809 C135.899,99.88 138.16,101.331 140.829,101.517 C143.571,101.71 146.081,100.522 147.725,98.567 L150.046,69.74 C150.219,67.327 145.781,65.034 143.367,64.859 Z" id="Shape" fill="#35343F"></path>
                    <path d="M28.461,2.119 C26.059,1.786 21.242,3.108 20.911,5.504 L16.818,40.369 C17.748,42.983 20.039,45.01 22.975,45.405 C25.547,45.754 27.982,44.775 29.618,43 L34.81,7.422 C35.142,5.025 30.857,2.45 28.461,2.119 Z" id="Shape" fill="#FFFFFF"></path>
                    <path d="M28.711,0.494 C26.309,0.161 21.492,1.483 21.161,3.879 L17.068,38.744 C17.998,41.358 20.289,43.385 23.225,43.78 C25.797,44.129 28.232,43.15 29.868,41.375 L35.06,5.797 C35.392,3.4 31.107,0.825 28.711,0.494 Z" id="Shape" fill="#35343F"></path>
                </g>
                <g id="Group" transform="translate(22.000000, 0.000000)">
                    <path d="M425.864,80.91 C425.865,80.831 425.864,80.749 425.864,80.673 L425.864,74.77 L423.312,74.78 C421.988,73.324 420.173,71.956 417.803,70.755 L297.447,10.487 C286.502,4.942 268.544,4.986 257.34,10.58 L8.73,136.144 C6.069,137.473 4.047,139.001 2.628,140.623 L0.215,140.635 L0.215,146.019 C0.204,146.224 0.209,146.422 0.215,146.625 L0.215,146.925 L0.238,146.925 C0.479,150.346 3.125,153.715 8.258,156.315 L128.617,216.582 C139.559,222.127 157.515,222.084 168.722,216.489 L417.328,90.926 C422.811,88.192 425.643,84.629 425.845,81.059 L425.864,81.059 L425.864,80.91 Z" id="Shape" fill="#C4877E"></path>
                    <path d="M417.804,65.183 C428.749,70.724 428.537,79.753 417.329,85.353 L168.723,210.915 C157.518,216.509 139.56,216.554 128.618,211.009 L8.259,150.74 C-2.683,145.194 -2.473,136.165 8.731,130.567 L257.341,5.009 C268.545,-0.586 286.503,-0.632 297.448,4.914 L417.804,65.183 Z" id="Shape" stroke="#FFFFFF" fill="#F0F2F7"></path>
                    <path d="M240.5,75.5 C241.916,76.217 241.889,77.385 240.438,78.11 L97.922,152.344 C96.473,153.068 94.15,153.073 92.734,152.357 L77.163,144.56 C75.748,143.843 75.774,142.675 77.224,141.95 L219.742,67.716 C221.191,66.993 223.514,66.987 224.93,67.704 L240.5,75.5 Z" id="Shape" fill="#ADB4D8" opacity="0.4"></path>
                </g>
            </g>
            <g id="Group" transform="translate(105.000000, 235.000000)">
                <path d="M7.152,19 C11.787,15.284 18.627,12.868 26.407,12.196 C34.144,11.528 41.93,12.658 48.33,15.379 L52.262,17.05 C57.436,15.536 63.934,17.58 69.137,20.34 C76.668,24.335 77.184,33.762 72.001,36.668 C66.817,39.574 56.509,37.492 51.001,33.335 C45.715,29.348 44.752,21.598 49.188,18.454 L47.374,17.683 C34.911,12.384 17.557,13.853 8.692,20.959 C5.075,23.857 3.417,27.236 3.893,30.729 C4.502,35.187 8.561,39.321 15.029,42.071 L17.363,43.063 C17.777,42.73 18.244,42.413 18.765,42.115 C24.358,38.928 34.073,39.223 40.462,42.774 C46.851,46.325 47.499,51.787 41.906,54.973 C36.314,58.16 26.599,57.865 20.21,54.314 C15.507,51.701 13.92,48.053 15.636,45.039 L14.073,44.374 C6.778,41.273 2.175,36.424 1.444,31.068 C0.849,26.712 2.875,22.427 7.152,19 Z" id="Shape" fill="#BFC5E0" fill-rule="nonzero"></path>
                <g>
                    <g fill-rule="nonzero" id="Shape">
                        <g transform="translate(11.000000, 28.000000)">
                            <polygon fill="#95A0C1" points="1.924 0.651 0.472 1.578 0.803 7.871 2.206 6.832"></polygon>
                            <polygon fill="#ADB4D8" points="1.154 6.759 12.413 12.015 12.172 7.441 0.912 2.185"></polygon>
                            <polygon fill="#DEEDFF" points="0.907 2.188 12.166 7.445 12.922 7.007 1.662 1.75"></polygon>
                        </g>
                        <g transform="translate(48.000000, 6.000000)">
                            <polygon fill="#95A0C1" points="1.586 0.031 0.135 0.959 0.467 7.251 1.869 6.213"></polygon>
                            <polygon fill="#9AA3CC" points="0.817 6.139 12.076 11.396 11.835 6.822 0.576 1.566"></polygon>
                            <polygon fill="#DEEDFF" points="0.569 1.569 11.829 6.825 12.584 6.387 1.325 1.13"></polygon>
                        </g>
                        <g>
                            <path d="M0.745,18.001 C-0.088,13.906 1.92,9.81 6.966,6.683 C17.06,0.428 35.487,0.417 48.125,6.66 L48.489,13.186 C35.851,6.944 17.385,6.61 7.292,12.865 L7.142,10.014 C3.358,12.36 1.282,15.25 0.831,18.276" fill="#ADB4D8"></path>
                            <path d="M31.521,6.359 C31.441,4.838 31.052,3.948 30.409,3.445 C29.724,2.419 26.538,2.29 26.538,2.29 C18.571,2.585 11.502,3.873 6.967,6.683 C1.921,9.81 -0.087,13.907 0.746,18.001 L2.849,23.838 C2.956,23.113 3.095,22.346 3.286,21.566 L4.732,24.939 C4.603,22.002 4.891,18.06 9.02,14.683 C11.499,12.656 15.154,11.322 18.709,10.526 C21.699,9.857 23.971,9.528 25.982,9.302 C26.341,9.262 28.203,9.123 29.137,9.138 C30.025,9.151 31.641,8.646 31.521,6.359 Z" fill="#000000"></path>
                            <path d="M0.119,16.703 C1.152,20.758 4.855,26.133 11.011,29.319 C11.141,29.387 11.375,29.485 11.508,29.55 L11.842,35.899 C11.544,35.752 11.151,35.571 10.864,35.42 C3.576,31.578 -0.085,26.466 0.189,21.599" fill="#BFC5E0"></path>
                            <path d="M12.925,28.691 L12.231,28.303 C5.71,25.083 1.846,20.678 1.633,16.22 C1.465,12.735 3.612,9.427 7.682,6.905 C17.551,0.79 35.737,0.835 48.135,6.959 L49.583,6.049 L48.782,5.653 C35.944,-0.687 17.133,-0.66 6.847,5.713 C2.309,8.525 -0.085,12.282 0.11,16.293 C0.343,21.149 4.307,25.875 11.011,29.316 C11.177,29.402 11.344,29.485 11.513,29.569 L12.925,28.691 Z" fill="#EDEEF9"></path>
                        </g>
                    </g>
                    <g transform="translate(45.000000, 5.000000)">
                        <path d="M7.71,3.455 L11.851,0.912 C11.851,0.912 11.856,0.912 11.865,0.914 C13.564,-0.04 15.917,-0.013 18.567,1.225 C24.111,3.814 28.858,10.71 29.171,16.626 C29.34,19.85 28.157,22.115 26.15,23.093 L22.419,25.392 L20.908,23.138 C20.512,23.003 20.109,22.844 19.697,22.652 C14.153,20.063 9.406,13.168 9.094,7.25 C9.063,6.66 9.078,6.104 9.136,5.58 L7.71,3.455 Z" id="Shape" fill="url(#linearGradient-1)" fill-rule="nonzero"></path>
                        <path d="M4.312,10.257 C4.625,16.174 9.372,23.07 14.916,25.659 C20.46,28.248 24.702,25.55 24.39,19.633 C24.077,13.716 19.331,6.821 13.787,4.232 C8.243,1.643 4,4.34 4.312,10.257 Z" id="Shape" fill="#A2AACC" fill-rule="nonzero"></path>
                        <path d="M2.406,6.417 C2.406,6.417 3.627,4.957 5.462,4.253 C6.996,3.663 9.962,3.227 12.714,4.512 C18.471,7.2 23.399,14.359 23.723,20.502 C23.899,23.848 22.407,26.648 20.404,27.755 C18.402,28.861 17.755,28.895 17.755,28.895 L15.144,27.262 C14.734,27.122 14.316,26.957 13.888,26.758 C8.133,24.07 3.204,16.911 2.88,10.768 C2.848,10.156 2.864,9.578 2.923,9.034 L2.406,6.417 Z" id="Shape" fill="#3E396B" fill-rule="nonzero"></path>
                        <path d="M0.137,12.576 C0.461,18.72 5.388,25.878 11.145,28.567 C16.901,31.255 21.304,28.454 20.98,22.311 C20.656,16.168 15.727,9.009 9.972,6.321 C4.216,3.633 -0.188,6.434 0.137,12.576 Z" id="Shape" fill="#1D1B44" fill-rule="nonzero"></path>
                        <path d="M3.959,15.041 C4.133,18.338 6.777,22.181 9.867,23.623 C12.957,25.066 15.319,23.563 15.144,20.266 C14.971,16.969 12.326,13.126 9.237,11.684 C6.148,10.241 3.785,11.744 3.959,15.041 Z" id="Shape" fill="#3E396B" fill-rule="nonzero"></path>
                        <g id="Clipped" transform="translate(3.000000, 11.000000)">
                            <mask id="mask-3" fill="white">
                                <use xlink:href="#path-2"></use>
                            </mask>
                            <g id="SVGID_4_"></g>
                            <path d="M3,3.665 C3.151,6.537 5.455,9.883 8.146,11.139 C10.836,12.396 12.895,11.086 12.744,8.215 C12.593,5.344 10.289,1.997 7.598,0.741 C4.907,-0.515 2.849,0.794 3,3.665 Z" id="Shape" fill="#000000" fill-rule="nonzero" mask="url(#mask-3)"></path>
                        </g>
                    </g>
                    <g transform="translate(14.000000, 25.000000)" fill-rule="nonzero" id="Shape">
                        <path d="M6.322,3.661 C6.322,3.661 7.543,2.2 9.377,1.496 C10.912,0.906 13.877,0.47 16.63,1.755 C22.386,4.444 27.315,11.603 27.638,17.745 C27.815,21.092 26.323,23.891 24.32,24.998 C22.316,26.104 21.67,26.139 21.67,26.139 L19.059,24.506 C18.649,24.366 18.231,24.2 17.804,24.002 C12.048,21.313 7.118,14.154 6.795,8.011 C6.763,7.399 6.78,6.821 6.839,6.277 L6.322,3.661 Z" fill="#3E396B"></path>
                        <path d="M4.269,9.594 C4.592,15.738 9.521,22.896 15.278,25.584 C21.033,28.272 25.435,25.471 25.113,19.328 C24.789,13.185 19.86,6.027 14.105,3.338 C8.348,0.65 3.945,3.451 4.269,9.594 Z" fill="#20115B"></path>
                        <path d="M2.552,6.373 L6.694,3.83 C6.694,3.83 6.701,3.83 6.709,3.831 C8.408,2.878 10.76,2.904 13.411,4.142 C18.955,6.732 23.702,13.626 24.014,19.543 C24.184,22.767 23,25.032 20.993,26.01 L17.261,28.311 L15.75,26.056 C15.354,25.921 14.951,25.761 14.54,25.57 C8.995,22.981 4.25,16.085 3.937,10.168 C3.906,9.578 3.922,9.022 3.979,8.498 L2.552,6.373 Z" fill="url(#linearGradient-4)"></path>
                        <path d="M0.145,12.469 C0.458,18.386 5.205,25.282 10.749,27.87 C16.292,30.461 20.534,27.762 20.223,21.846 C19.91,15.928 15.163,9.033 9.619,6.444 C4.074,3.854 -0.166,6.552 0.145,12.469 Z" fill="#FFFFFF"></path>
                        <path d="M0.669,14.302 C0.932,19.275 4.921,25.069 9.58,27.246 C14.238,29.422 17.803,27.154 17.54,22.182 C17.278,17.209 13.289,11.415 8.631,9.238 C3.972,7.063 0.407,9.33 0.669,14.302 Z" fill="#ADB4D8"></path>
                    </g>
                </g>
            </g>
            <g id="keyboard" transform="translate(211.000000, 204.000000)" fill-rule="nonzero">
                <path d="M104.642,15.029 L78.095,3.547 C77.365,3.18 76.143,3.193 75.366,3.58 L0.108,39.381 L0.108,41.716 L0.137,41.716 C0.161,41.937 0.309,42.153 0.64,42.319 L26.657,55.383 C27.389,55.75 28.614,55.735 29.388,55.345 L104.034,17.975 C104.381,17.802 104.555,17.584 104.604,17.364 L104.641,17.364 L104.641,15.029 L104.642,15.029 Z" id="Shape" fill="#AFB7D3"></path>
                <path d="M104.11,14.292 C104.842,14.661 104.811,15.272 104.034,15.662 L29.388,53.032 C28.614,53.42 27.389,53.436 26.657,53.069 L0.64,40.006 C-0.091,39.637 -0.058,39.024 0.716,38.641 L75.365,1.267 C76.142,0.877 77.364,0.866 78.094,1.228 L104.11,14.292 Z" id="Shape" fill="#FFFFFF"></path>
                <path d="M29.786,34.113 L33.419,32.294 C33.551,32.229 33.722,32.193 33.897,32.193 C34.028,32.193 34.147,32.212 34.231,32.256 L37.303,33.801 C37.358,33.829 37.374,33.852 37.374,33.858 C37.374,33.864 37.35,33.925 37.225,33.988 L33.594,35.802 C33.462,35.869 33.287,35.906 33.115,35.906 C32.983,35.906 32.863,35.884 32.781,35.844 L29.711,34.302 C29.651,34.272 29.638,34.247 29.638,34.242 C29.637,34.23 29.664,34.174 29.786,34.113 Z M64.074,24.892 C64.072,24.889 64.056,24.865 64.005,24.838 L60.932,23.294 C60.847,23.252 60.731,23.228 60.598,23.228 C60.425,23.228 60.25,23.266 60.118,23.332 L56.487,25.148 C56.364,25.211 56.339,25.27 56.339,25.277 C56.339,25.283 56.353,25.304 56.408,25.337 L59.481,26.879 C59.561,26.919 59.68,26.942 59.817,26.942 C59.988,26.942 60.161,26.903 60.293,26.84 L63.927,25.023 C64.05,24.959 64.074,24.903 64.074,24.892 Z M79.64,17.103 C79.64,17.099 79.628,17.075 79.568,17.045 L76.494,15.5 C76.414,15.459 76.296,15.438 76.163,15.438 C75.988,15.438 75.814,15.474 75.684,15.541 L72.053,17.358 C71.931,17.419 71.902,17.476 71.902,17.489 C71.902,17.489 71.917,17.515 71.974,17.549 L75.047,19.09 C75.128,19.129 75.244,19.151 75.377,19.151 C75.553,19.151 75.727,19.114 75.859,19.048 L79.491,17.23 C79.612,17.168 79.64,17.113 79.64,17.103 Z M78.88,13.078 C78.88,13.074 78.865,13.048 78.808,13.021 L75.738,11.479 C75.657,11.437 75.538,11.417 75.405,11.417 C75.23,11.417 75.057,11.452 74.924,11.517 L71.29,13.336 C71.171,13.4 71.144,13.455 71.144,13.465 C71.144,13.466 71.153,13.493 71.212,13.52 L74.287,15.066 C74.367,15.105 74.485,15.13 74.618,15.13 C74.791,15.13 74.968,15.091 75.096,15.024 L78.733,13.206 C78.851,13.145 78.88,13.086 78.88,13.078 Z M74.449,19.698 C74.449,19.694 74.436,19.67 74.382,19.641 L71.305,18.099 C71.227,18.057 71.104,18.038 70.971,18.038 C70.799,18.038 70.627,18.074 70.494,18.137 L66.861,19.954 C66.741,20.017 66.715,20.075 66.715,20.088 C66.715,20.088 66.729,20.115 66.783,20.145 L69.857,21.686 C70.046,21.78 70.439,21.762 70.67,21.646 L74.299,19.827 C74.421,19.767 74.449,19.706 74.449,19.698 Z M33.539,39.867 C33.727,39.961 34.12,39.943 34.352,39.827 L37.986,38.01 C38.105,37.947 38.132,37.892 38.132,37.88 C38.132,37.879 38.121,37.852 38.063,37.823 L34.989,36.28 C34.909,36.24 34.79,36.215 34.657,36.215 C34.483,36.215 34.309,36.252 34.178,36.318 L30.55,38.135 C30.425,38.198 30.398,38.256 30.398,38.266 C30.398,38.269 30.412,38.296 30.468,38.324 L33.539,39.867 Z M58.887,27.487 C58.883,27.487 58.87,27.46 58.815,27.436 L55.739,25.889 C55.662,25.849 55.542,25.828 55.408,25.828 C55.237,25.828 55.062,25.862 54.932,25.928 L51.301,27.748 C51.175,27.809 51.149,27.864 51.149,27.876 C51.149,27.88 51.163,27.904 51.221,27.934 L54.291,29.479 C54.48,29.572 54.87,29.552 55.104,29.437 L58.738,27.615 C58.857,27.558 58.887,27.498 58.887,27.487 Z M48.509,32.684 C48.509,32.68 48.496,32.654 48.438,32.627 L45.368,31.085 C45.286,31.043 45.168,31.021 45.035,31.021 C44.86,31.021 44.688,31.06 44.552,31.124 L40.924,32.941 C40.799,33.005 40.775,33.062 40.775,33.073 C40.775,33.073 40.789,33.1 40.843,33.128 L43.915,34.672 C43.995,34.712 44.118,34.735 44.251,34.735 C44.423,34.735 44.599,34.699 44.728,34.632 L48.361,32.812 C48.482,32.752 48.509,32.694 48.509,32.684 Z M53.697,30.088 C53.697,30.083 53.684,30.058 53.626,30.028 L50.556,28.486 C50.471,28.444 50.354,28.422 50.221,28.422 C50.047,28.422 49.873,28.459 49.742,28.526 L46.111,30.344 C45.984,30.407 45.959,30.464 45.959,30.472 C45.961,30.476 45.975,30.502 46.031,30.527 L49.104,32.074 C49.186,32.113 49.304,32.137 49.439,32.137 C49.609,32.137 49.786,32.099 49.916,32.034 L53.549,30.216 C53.671,30.155 53.697,30.098 53.697,30.088 Z M22.404,41.038 C22.591,41.135 22.983,41.114 23.217,40.997 L26.845,39.182 C26.967,39.119 26.997,39.064 26.997,39.052 C26.997,39.049 26.983,39.024 26.927,38.994 L23.851,37.45 C23.769,37.409 23.65,37.387 23.519,37.387 C23.345,37.387 23.172,37.426 23.04,37.491 L19.411,39.305 C19.284,39.369 19.259,39.426 19.259,39.436 C19.259,39.44 19.273,39.466 19.329,39.493 L22.404,41.038 Z M84.828,14.502 C84.823,14.502 84.811,14.475 84.76,14.445 L81.683,12.903 C81.602,12.861 81.481,12.838 81.351,12.838 C81.177,12.838 81.002,12.877 80.872,12.941 L77.237,14.759 C77.118,14.82 77.091,14.879 77.091,14.89 C77.091,14.891 77.1,14.918 77.159,14.947 L80.23,16.49 C80.423,16.584 80.816,16.566 81.046,16.451 L84.675,14.634 C84.802,14.571 84.828,14.514 84.828,14.502 Z M66.468,27.787 C66.655,27.878 67.045,27.86 67.28,27.748 L70.91,25.929 C71.036,25.866 71.061,25.808 71.061,25.8 C71.061,25.796 71.045,25.772 70.989,25.745 L67.919,24.198 C67.833,24.156 67.715,24.137 67.582,24.137 C67.407,24.137 67.235,24.174 67.107,24.239 L63.474,26.057 C63.352,26.119 63.323,26.177 63.323,26.187 C63.323,26.19 63.335,26.218 63.394,26.247 L66.468,27.787 Z M28.352,42.466 C28.54,42.558 28.932,42.537 29.163,42.425 L32.793,40.608 C32.917,40.544 32.944,40.489 32.944,40.478 C32.944,40.474 32.93,40.45 32.874,40.423 L29.802,38.875 C29.72,38.834 29.601,38.813 29.468,38.813 C29.294,38.813 29.12,38.852 28.989,38.915 L25.358,40.73 C25.235,40.794 25.208,40.853 25.208,40.863 C25.208,40.868 25.222,40.891 25.278,40.92 L28.352,42.466 Z M84.065,10.482 C84.065,10.477 84.052,10.453 83.997,10.427 L80.923,8.88 C80.842,8.84 80.724,8.817 80.589,8.817 C80.419,8.817 80.242,8.856 80.111,8.919 L76.481,10.737 C76.358,10.803 76.332,10.855 76.332,10.868 C76.332,10.871 76.345,10.896 76.402,10.926 L79.475,12.467 C79.664,12.563 80.055,12.543 80.281,12.43 L83.92,10.611 C84.042,10.549 84.069,10.489 84.065,10.482 Z M61.277,30.383 C61.465,30.477 61.856,30.461 62.088,30.342 L65.721,28.527 C65.843,28.463 65.868,28.407 65.868,28.394 C65.868,28.394 65.856,28.366 65.8,28.337 L62.727,26.796 C62.643,26.754 62.529,26.732 62.393,26.732 C62.221,26.732 62.046,26.77 61.916,26.835 L58.281,28.652 C58.161,28.715 58.133,28.77 58.133,28.785 C58.133,28.785 58.149,28.812 58.206,28.841 L61.277,30.383 Z M56.088,32.983 C56.279,33.072 56.672,33.056 56.904,32.94 L60.531,31.123 C60.66,31.062 60.683,31.002 60.683,30.996 C60.682,30.989 60.667,30.963 60.612,30.938 L57.537,29.393 C57.455,29.353 57.336,29.332 57.202,29.332 C57.03,29.332 56.86,29.368 56.728,29.432 L53.094,31.252 C52.972,31.315 52.945,31.371 52.945,31.382 C52.945,31.386 52.959,31.409 53.017,31.437 L56.088,32.983 Z M40.524,40.774 C40.712,40.868 41.106,40.849 41.335,40.731 L44.969,38.916 C45.092,38.855 45.117,38.798 45.117,38.786 C45.117,38.783 45.103,38.758 45.045,38.731 L41.975,37.189 C41.891,37.147 41.776,37.125 41.639,37.125 C41.465,37.125 41.291,37.161 41.163,37.225 L37.529,39.045 C37.408,39.106 37.381,39.166 37.381,39.178 C37.381,39.178 37.395,39.202 37.451,39.233 L40.524,40.774 Z M50.9,35.578 C50.985,35.62 51.103,35.641 51.234,35.641 C51.408,35.641 51.581,35.603 51.712,35.538 L55.346,33.719 C55.469,33.659 55.494,33.604 55.494,33.593 C55.494,33.587 55.482,33.563 55.422,33.535 L52.351,31.993 C52.27,31.951 52.153,31.929 52.02,31.929 C51.845,31.929 51.669,31.966 51.54,32.029 L47.907,33.847 C47.783,33.91 47.758,33.965 47.758,33.98 C47.758,33.98 47.771,34.008 47.831,34.037 L50.9,35.578 Z M37.576,46.962 C37.576,46.959 37.563,46.939 37.505,46.904 L34.43,45.363 C34.352,45.323 34.231,45.3 34.096,45.3 C33.925,45.3 33.752,45.336 33.625,45.403 L29.99,47.221 C29.865,47.281 29.838,47.342 29.838,47.349 C29.838,47.355 29.856,47.379 29.912,47.41 L32.984,48.952 C33.172,49.042 33.56,49.024 33.793,48.91 L37.426,47.093 C37.549,47.032 37.576,46.977 37.576,46.962 Z M72.936,3.755 C72.815,3.815 72.786,3.874 72.786,3.886 C72.786,3.887 72.8,3.911 72.857,3.944 L75.882,5.465 C76.069,5.554 76.462,5.536 76.694,5.422 L80.324,3.605 C80.449,3.543 80.474,3.485 80.474,3.474 C80.474,3.471 80.46,3.449 80.406,3.417 L77.382,1.901 C77.299,1.858 77.178,1.834 77.043,1.834 C76.873,1.834 76.699,1.873 76.57,1.937 L72.936,3.755 Z M62.56,8.95 C62.434,9.013 62.408,9.072 62.408,9.08 C62.408,9.086 62.423,9.111 62.483,9.138 L65.504,10.657 C65.585,10.696 65.701,10.721 65.838,10.721 C66.01,10.721 66.184,10.68 66.317,10.618 L69.946,8.799 C70.071,8.735 70.096,8.678 70.096,8.668 C70.096,8.665 70.086,8.64 70.028,8.611 L67.005,7.094 C66.924,7.052 66.804,7.03 66.671,7.03 C66.493,7.03 66.324,7.069 66.192,7.131 L62.56,8.95 Z M81.667,8.141 C81.545,8.204 81.519,8.265 81.521,8.269 C81.521,8.275 81.533,8.299 81.589,8.329 L84.661,9.871 C84.853,9.963 85.245,9.947 85.477,9.829 L89.105,8.015 C89.233,7.948 89.254,7.891 89.254,7.882 C89.254,7.876 89.242,7.854 89.186,7.827 L86.111,6.283 C86.03,6.241 85.91,6.219 85.777,6.219 C85.605,6.219 85.43,6.258 85.299,6.322 L81.667,8.141 Z M15.865,32.327 C15.743,32.387 15.717,32.445 15.717,32.455 C15.717,32.458 15.729,32.482 15.785,32.512 L18.81,34.031 C18.997,34.126 19.389,34.107 19.621,33.99 L23.25,32.175 C23.377,32.114 23.4,32.056 23.4,32.044 C23.4,32.044 23.387,32.016 23.331,31.987 L20.307,30.467 C20.227,30.428 20.109,30.404 19.976,30.404 C19.801,30.404 19.627,30.444 19.495,30.507 L15.865,32.327 Z M69.349,9.962 C69.349,9.963 69.362,9.99 69.414,10.017 L72.488,11.561 C72.677,11.656 73.064,11.639 73.299,11.52 L76.934,9.703 C77.054,9.64 77.081,9.582 77.081,9.573 C77.081,9.573 77.066,9.545 77.013,9.516 L73.941,7.974 C73.858,7.931 73.739,7.91 73.606,7.91 C73.434,7.91 73.258,7.946 73.129,8.014 L69.494,9.828 C69.368,9.897 69.344,9.951 69.349,9.962 Z M42.764,44.368 C42.764,44.365 42.75,44.338 42.694,44.311 L39.623,42.767 C39.541,42.726 39.423,42.701 39.29,42.701 C39.117,42.701 38.941,42.744 38.809,42.805 L35.181,44.622 C35.055,44.686 35.027,44.744 35.027,44.753 C35.03,44.759 35.047,44.78 35.101,44.81 L38.173,46.351 C38.359,46.442 38.755,46.43 38.985,46.317 L42.617,44.497 C42.738,44.435 42.764,44.377 42.764,44.368 Z M84.226,15.667 C84.101,15.728 84.074,15.785 84.074,15.8 C84.074,15.8 84.092,15.822 84.148,15.855 L87.22,17.396 C87.406,17.489 87.804,17.471 88.029,17.36 L97.888,12.423 C98.011,12.361 98.037,12.303 98.037,12.292 C98.037,12.291 98.025,12.264 97.966,12.235 L94.898,10.692 C94.814,10.65 94.695,10.627 94.56,10.627 C94.39,10.627 94.214,10.666 94.085,10.733 L84.226,15.667 Z M32.387,49.561 C32.387,49.561 32.375,49.534 32.317,49.506 L29.245,47.962 C29.163,47.92 29.046,47.896 28.911,47.896 C28.738,47.896 28.563,47.935 28.432,48 L24.803,49.817 C24.677,49.88 24.649,49.938 24.649,49.95 C24.649,49.951 24.663,49.978 24.72,50.002 L27.796,51.549 C27.984,51.64 28.377,51.625 28.604,51.508 L32.238,49.69 C32.361,49.63 32.387,49.573 32.387,49.561 Z M10.679,34.923 C10.552,34.986 10.527,35.044 10.527,35.051 C10.53,35.055 10.544,35.082 10.597,35.111 L13.622,36.627 C13.704,36.67 13.822,36.691 13.956,36.691 C14.126,36.691 14.303,36.655 14.431,36.588 L18.065,34.773 C18.188,34.71 18.213,34.655 18.213,34.64 C18.213,34.64 18.2,34.616 18.143,34.581 L15.119,33.064 C15.038,33.024 14.921,33.004 14.788,33.004 C14.613,33.004 14.44,33.04 14.308,33.106 L10.679,34.923 Z M55.577,21.257 C55.577,21.261 55.59,21.285 55.648,21.315 L58.72,22.859 C58.909,22.945 59.3,22.935 59.532,22.82 L63.165,21 C63.287,20.938 63.314,20.882 63.314,20.869 C63.314,20.868 63.298,20.844 63.242,20.815 L60.171,19.27 C60.089,19.228 59.97,19.204 59.835,19.204 C59.664,19.204 59.492,19.243 59.362,19.308 L55.724,21.126 C55.605,21.19 55.577,21.246 55.577,21.257 Z M34.826,31.646 C34.826,31.649 34.838,31.673 34.892,31.702 L37.968,33.246 C38.156,33.341 38.547,33.324 38.779,33.205 L42.412,31.387 C42.534,31.33 42.56,31.267 42.56,31.257 C42.56,31.257 42.547,31.232 42.49,31.2 L39.418,29.658 C39.336,29.616 39.218,29.596 39.085,29.596 C38.91,29.596 38.736,29.635 38.606,29.698 L34.977,31.515 C34.853,31.578 34.826,31.636 34.826,31.646 Z M50.389,23.854 C50.389,23.856 50.403,23.883 50.459,23.911 L53.535,25.455 C53.722,25.547 54.109,25.533 54.346,25.416 L57.977,23.596 C58.104,23.533 58.129,23.474 58.124,23.466 C58.124,23.462 58.109,23.438 58.056,23.409 L54.981,21.864 C54.902,21.825 54.783,21.803 54.65,21.803 C54.475,21.803 54.302,21.84 54.172,21.907 L50.543,23.723 C50.416,23.786 50.389,23.846 50.389,23.854 Z M45.2,26.451 C45.2,26.454 45.213,26.479 45.273,26.508 L48.346,28.052 C48.533,28.145 48.926,28.128 49.155,28.013 L52.787,26.196 C52.912,26.135 52.937,26.08 52.937,26.065 C52.937,26.065 52.924,26.038 52.867,26.009 L49.795,24.464 C49.71,24.424 49.594,24.4 49.458,24.4 C49.286,24.4 49.116,24.437 48.983,24.504 L45.352,26.321 C45.227,26.385 45.2,26.44 45.2,26.451 Z M24.447,36.841 C24.447,36.841 24.463,36.869 24.518,36.896 L27.593,38.445 C27.779,38.534 28.171,38.518 28.403,38.402 L32.037,36.587 C32.156,36.521 32.183,36.464 32.183,36.453 C32.183,36.45 32.169,36.425 32.113,36.398 L29.04,34.856 C28.958,34.817 28.839,34.794 28.707,34.794 C28.536,34.794 28.358,34.828 28.228,34.896 L24.6,36.711 C24.471,36.776 24.447,36.833 24.447,36.841 Z M40.012,29.048 C40.015,29.052 40.028,29.078 40.083,29.106 L43.158,30.648 C43.347,30.743 43.738,30.724 43.967,30.607 L47.601,28.792 C47.726,28.726 47.75,28.669 47.75,28.662 C47.75,28.658 47.736,28.632 47.682,28.604 L44.607,27.06 C44.525,27.021 44.405,26.999 44.27,26.999 C44.1,26.999 43.925,27.035 43.798,27.101 L40.164,28.919 C40.038,28.981 40.012,29.039 40.012,29.048 Z M43.322,35.284 C43.318,35.278 43.305,35.253 43.249,35.223 L40.177,33.682 C40.097,33.64 39.976,33.618 39.844,33.618 C39.67,33.618 39.496,33.658 39.364,33.719 L35.738,35.538 C35.611,35.603 35.583,35.659 35.583,35.668 C35.587,35.675 35.603,35.696 35.656,35.725 L38.729,37.27 C38.918,37.364 39.312,37.345 39.541,37.23 L43.172,35.413 C43.297,35.35 43.322,35.292 43.322,35.284 Z M69.261,22.296 C69.261,22.29 69.246,22.266 69.191,22.238 L66.12,20.695 C66.036,20.653 65.919,20.632 65.786,20.632 C65.614,20.632 65.439,20.671 65.308,20.734 L61.675,22.551 C61.553,22.615 61.526,22.671 61.526,22.682 C61.526,22.683 61.54,22.71 61.598,22.739 L64.669,24.286 C64.858,24.377 65.25,24.359 65.482,24.245 L69.113,22.423 C69.238,22.361 69.266,22.303 69.261,22.296 Z M65.956,16.063 C65.956,16.063 65.967,16.09 66.025,16.12 L69.097,17.662 C69.285,17.753 69.675,17.737 69.91,17.621 L73.543,15.806 C73.665,15.742 73.689,15.683 73.689,15.678 C73.689,15.671 73.676,15.648 73.621,15.618 L70.55,14.076 C70.466,14.034 70.348,14.013 70.215,14.013 C70.042,14.013 69.869,14.048 69.737,14.115 L66.102,15.932 C65.981,15.994 65.956,16.051 65.956,16.063 Z M60.766,18.657 C60.766,18.666 60.785,18.688 60.836,18.717 L63.912,20.259 C64.1,20.35 64.491,20.337 64.721,20.22 L68.351,18.405 C68.479,18.338 68.503,18.28 68.503,18.272 C68.5,18.267 68.488,18.244 68.435,18.215 L65.36,16.673 C65.28,16.63 65.159,16.609 65.026,16.609 C64.851,16.609 64.68,16.648 64.547,16.713 L60.918,18.527 C60.79,18.595 60.766,18.649 60.766,18.657 Z M43.404,22.946 C43.404,22.947 43.418,22.976 43.475,23.006 L46.546,24.548 C46.63,24.591 46.747,24.614 46.88,24.614 C47.055,24.614 47.228,24.573 47.36,24.508 L50.99,22.692 C51.114,22.631 51.141,22.573 51.141,22.561 C51.141,22.559 51.127,22.533 51.071,22.504 L47.998,20.96 C47.913,20.921 47.798,20.896 47.662,20.896 C47.487,20.896 47.314,20.933 47.184,21 L43.553,22.82 C43.431,22.879 43.404,22.938 43.404,22.946 Z M25.496,27.869 C25.415,27.829 25.297,27.809 25.161,27.809 C24.988,27.809 24.815,27.843 24.683,27.906 L21.052,29.731 C20.925,29.792 20.904,29.853 20.904,29.859 C20.904,29.862 20.92,29.886 20.973,29.914 L23.997,31.433 C24.079,31.475 24.198,31.496 24.331,31.496 C24.501,31.496 24.676,31.463 24.807,31.396 L28.441,29.576 C28.562,29.514 28.589,29.458 28.589,29.448 C28.589,29.442 28.575,29.42 28.519,29.39 L25.496,27.869 Z M9.928,35.663 C9.851,35.622 9.733,35.6 9.599,35.6 C9.426,35.6 9.251,35.636 9.124,35.703 L2.895,38.819 C2.772,38.881 2.745,38.939 2.745,38.947 C2.745,38.951 2.758,38.974 2.815,39.002 L5.84,40.524 C6.028,40.618 6.418,40.602 6.651,40.483 L12.877,37.367 C12.998,37.305 13.026,37.247 13.026,37.237 C13.026,37.237 13.014,37.207 12.958,37.182 L9.928,35.663 Z M30.685,25.272 C30.604,25.235 30.481,25.211 30.348,25.211 C30.174,25.211 30.004,25.25 29.873,25.313 L26.244,27.131 C26.116,27.195 26.09,27.25 26.09,27.264 C26.09,27.264 26.105,27.289 26.162,27.321 L29.186,28.837 C29.374,28.931 29.766,28.913 29.995,28.797 L33.626,26.982 C33.754,26.918 33.778,26.859 33.778,26.851 C33.778,26.848 33.763,26.822 33.708,26.793 L30.685,25.272 Z M10.23,42.729 C10.418,42.82 10.809,42.806 11.043,42.691 L14.674,40.874 C14.795,40.81 14.822,40.753 14.822,40.744 C14.822,40.74 14.81,40.714 14.753,40.684 L11.68,39.141 C11.596,39.099 11.477,39.078 11.342,39.078 C11.172,39.078 10.998,39.116 10.868,39.18 L7.236,40.997 C7.114,41.063 7.088,41.118 7.088,41.128 C7.088,41.134 7.102,41.156 7.158,41.185 L10.23,42.729 Z M41.059,20.082 C40.974,20.041 40.86,20.016 40.725,20.016 C40.551,20.016 40.381,20.054 40.248,20.116 L36.619,21.936 C36.494,21.999 36.469,22.054 36.469,22.064 C36.469,22.068 36.481,22.094 36.54,22.125 L39.564,23.64 C39.752,23.734 40.14,23.718 40.373,23.601 L44.007,21.784 C44.129,21.721 44.156,21.668 44.156,21.657 C44.156,21.651 44.143,21.626 44.084,21.596 L41.059,20.082 Z M46.247,17.48 C46.167,17.441 46.049,17.419 45.916,17.419 C45.743,17.419 45.568,17.453 45.437,17.521 L41.804,19.341 C41.681,19.402 41.656,19.459 41.656,19.469 C41.656,19.475 41.669,19.496 41.726,19.524 L44.749,21.044 C44.935,21.14 45.329,21.119 45.56,21.005 L49.193,19.186 C49.319,19.122 49.342,19.065 49.342,19.057 C49.342,19.053 49.327,19.03 49.273,19 L46.247,17.48 Z M51.437,14.886 C51.353,14.844 51.238,14.822 51.103,14.822 C50.928,14.822 50.757,14.86 50.625,14.925 L46.993,16.741 C46.867,16.808 46.843,16.863 46.843,16.871 C46.845,16.877 46.86,16.902 46.913,16.929 L49.938,18.446 C50.125,18.54 50.514,18.524 50.751,18.409 L54.383,16.59 C54.504,16.529 54.53,16.474 54.53,16.463 C54.53,16.457 54.516,16.435 54.459,16.402 L51.437,14.886 Z M35.873,22.676 C35.791,22.633 35.675,22.615 35.54,22.615 C35.367,22.615 35.192,22.649 35.061,22.716 L31.429,24.536 C31.304,24.597 31.279,24.652 31.279,24.662 C31.279,24.665 31.291,24.691 31.351,24.718 L34.374,26.239 C34.453,26.279 34.573,26.302 34.707,26.302 C34.878,26.302 35.053,26.266 35.185,26.201 L38.818,24.384 C38.94,24.32 38.966,24.262 38.966,24.251 C38.966,24.251 38.952,24.223 38.896,24.194 L35.873,22.676 Z M14.623,44.933 C14.808,45.027 15.199,45.011 15.436,44.894 L21.661,41.776 C21.782,41.713 21.807,41.658 21.807,41.646 C21.807,41.645 21.795,41.618 21.74,41.592 L18.665,40.045 C18.582,40.005 18.466,39.982 18.333,39.982 C18.157,39.982 17.983,40.021 17.856,40.088 L11.627,43.201 C11.502,43.267 11.477,43.324 11.477,43.332 C11.477,43.338 11.493,43.36 11.55,43.389 L14.623,44.933 Z M82.272,24.28 C82.353,24.319 82.473,24.343 82.606,24.343 C82.781,24.343 82.95,24.302 83.083,24.239 L86.717,22.422 C86.839,22.359 86.863,22.3 86.863,22.291 C86.863,22.286 86.848,22.261 86.793,22.232 L83.723,20.69 C83.64,20.651 83.519,20.629 83.383,20.629 C83.211,20.629 83.041,20.663 82.911,20.729 L79.278,22.549 C79.156,22.61 79.126,22.667 79.126,22.679 C79.126,22.683 79.142,22.706 79.198,22.734 L82.272,24.28 Z M87.458,21.68 C87.646,21.774 88.039,21.758 88.271,21.643 L91.903,19.824 C92.024,19.76 92.051,19.705 92.051,19.691 C92.051,19.691 92.039,19.664 91.981,19.634 L88.909,18.092 C88.829,18.051 88.71,18.029 88.579,18.029 C88.403,18.029 88.229,18.066 88.097,18.132 L84.464,19.949 C84.342,20.009 84.318,20.067 84.318,20.082 C84.318,20.083 84.33,20.107 84.386,20.137 L87.458,21.68 Z M92.644,19.084 C92.837,19.173 93.225,19.158 93.459,19.045 L97.095,17.227 C97.214,17.164 97.241,17.107 97.241,17.096 C97.241,17.096 97.225,17.069 97.172,17.039 L94.097,15.495 C94.017,15.455 93.9,15.432 93.767,15.432 C93.589,15.432 93.414,15.471 93.288,15.535 L89.653,17.354 C89.538,17.411 89.504,17.47 89.504,17.48 C89.504,17.487 89.521,17.511 89.577,17.537 L92.644,19.084 Z M56.623,12.285 C56.543,12.243 56.426,12.224 56.293,12.224 C56.122,12.224 55.947,12.263 55.814,12.327 L52.18,14.141 C52.054,14.21 52.033,14.265 52.034,14.274 C52.034,14.278 52.049,14.302 52.104,14.329 L55.126,15.85 C55.315,15.947 55.708,15.927 55.938,15.811 L59.571,13.993 C59.693,13.93 59.72,13.875 59.72,13.863 C59.72,13.862 59.704,13.835 59.65,13.806 L56.623,12.285 Z M97.836,16.486 C98.023,16.58 98.413,16.561 98.648,16.447 L102.278,14.628 C102.403,14.567 102.428,14.507 102.428,14.499 C102.428,14.494 102.415,14.47 102.36,14.439 L99.287,12.898 C99.203,12.858 99.086,12.833 98.949,12.833 C98.778,12.833 98.606,12.87 98.475,12.939 L94.842,14.754 C94.716,14.815 94.69,14.874 94.69,14.885 C94.69,14.891 94.709,14.913 94.765,14.942 L97.836,16.486 Z M23.404,49.343 C23.486,49.385 23.605,49.406 23.738,49.406 C23.91,49.406 24.084,49.367 24.214,49.304 L34.593,44.11 C34.714,44.047 34.74,43.989 34.74,43.982 C34.74,43.978 34.726,43.954 34.67,43.922 L31.594,42.376 C31.517,42.339 31.399,42.315 31.265,42.315 C31.089,42.315 30.918,42.351 30.787,42.418 L20.411,47.613 C20.289,47.676 20.26,47.734 20.26,47.742 C20.26,47.747 20.272,47.769 20.331,47.801 L23.404,49.343 Z M76.046,27.395 C76.128,27.437 76.245,27.46 76.378,27.46 C76.555,27.46 76.728,27.42 76.857,27.356 L81.529,25.016 C81.651,24.956 81.678,24.898 81.678,24.889 C81.673,24.886 81.659,24.859 81.605,24.831 L78.535,23.287 C78.453,23.245 78.335,23.224 78.203,23.224 C78.031,23.224 77.853,23.263 77.726,23.328 L73.05,25.661 C72.93,25.727 72.903,25.782 72.903,25.794 C72.903,25.796 72.919,25.821 72.971,25.853 L76.046,27.395 Z M19.012,47.141 C19.094,47.183 19.211,47.204 19.345,47.204 L19.346,47.204 C19.518,47.204 19.694,47.166 19.823,47.098 L27.606,43.202 C27.731,43.139 27.756,43.083 27.756,43.074 C27.754,43.068 27.74,43.046 27.684,43.017 L24.613,41.475 C24.531,41.436 24.412,41.41 24.276,41.41 C24.104,41.41 23.931,41.449 23.801,41.511 L16.017,45.408 C15.896,45.473 15.87,45.526 15.87,45.536 C15.87,45.54 15.883,45.567 15.941,45.596 L19.012,47.141 Z M43.36,43.756 C43.442,43.798 43.562,43.82 43.693,43.82 C43.867,43.82 44.041,43.781 44.172,43.716 L49.36,41.122 C49.484,41.058 49.51,41.002 49.51,40.991 C49.51,40.988 49.496,40.963 49.44,40.933 L46.364,39.392 C46.282,39.351 46.166,39.329 46.032,39.329 C45.86,39.329 45.686,39.365 45.554,39.432 L40.368,42.028 C40.24,42.091 40.217,42.15 40.217,42.157 C40.217,42.161 40.231,42.185 40.286,42.211 L43.36,43.756 Z M50.104,40.38 C50.186,40.423 50.307,40.446 50.44,40.446 C50.612,40.446 50.785,40.407 50.915,40.344 L75.303,28.133 C75.423,28.073 75.45,28.017 75.45,28.005 C75.45,28.001 75.439,27.977 75.381,27.945 L72.307,26.401 C72.224,26.364 72.107,26.34 71.974,26.34 C71.798,26.34 71.626,26.379 71.495,26.441 L47.112,38.652 C46.989,38.714 46.963,38.77 46.963,38.78 C46.963,38.781 46.975,38.807 47.032,38.837 L50.104,40.38 Z M72.189,4.495 C72.109,4.456 71.988,4.433 71.858,4.433 C71.683,4.433 71.511,4.469 71.379,4.535 L67.746,6.352 C67.623,6.416 67.599,6.476 67.599,6.48 C67.599,6.484 67.612,6.51 67.668,6.535 L70.689,8.056 C70.776,8.099 70.891,8.121 71.03,8.121 C71.199,8.121 71.373,8.085 71.502,8.017 L75.134,6.204 C75.258,6.138 75.286,6.081 75.286,6.07 C75.286,6.067 75.271,6.043 75.214,6.012 L72.189,4.495 Z M33.029,28.141 C33.029,28.144 33.041,28.17 33.097,28.2 L36.169,29.742 C36.36,29.839 36.751,29.821 36.982,29.703 L40.617,27.884 C40.738,27.823 40.763,27.766 40.763,27.754 C40.763,27.753 40.751,27.727 40.696,27.699 L37.62,26.152 C37.538,26.113 37.42,26.09 37.285,26.09 C37.113,26.09 36.941,26.128 36.808,26.194 L33.178,28.01 C33.055,28.074 33.029,28.13 33.029,28.141 Z M22.652,33.335 C22.652,33.338 22.666,33.363 22.723,33.395 L25.794,34.941 C25.982,35.033 26.376,35.016 26.607,34.899 L30.236,33.084 C30.36,33.018 30.387,32.961 30.387,32.95 C30.387,32.95 30.373,32.923 30.318,32.892 L27.244,31.352 C27.16,31.309 27.044,31.288 26.91,31.288 C26.74,31.288 26.56,31.326 26.431,31.391 L22.8,33.206 C22.679,33.269 22.652,33.324 22.652,33.335 Z M27.84,30.74 C27.84,30.743 27.853,30.767 27.909,30.797 L30.981,32.339 C31.171,32.432 31.562,32.415 31.793,32.3 L35.424,30.484 C35.549,30.421 35.576,30.36 35.576,30.355 C35.576,30.349 35.56,30.323 35.508,30.295 L32.43,28.751 C32.35,28.712 32.231,28.69 32.098,28.69 C31.927,28.69 31.75,28.726 31.621,28.792 L27.988,30.607 C27.866,30.672 27.84,30.729 27.84,30.74 Z M17.465,35.935 C17.465,35.935 17.479,35.963 17.535,35.993 L20.608,37.534 C20.792,37.629 21.188,37.609 21.42,37.493 L25.048,35.678 C25.175,35.615 25.199,35.557 25.199,35.547 C25.199,35.544 25.183,35.522 25.132,35.492 L22.056,33.947 C21.975,33.905 21.854,33.886 21.721,33.886 C21.55,33.886 21.377,33.923 21.245,33.989 L17.613,35.803 C17.488,35.864 17.465,35.921 17.465,35.935 Z M48.591,20.351 C48.591,20.354 48.606,20.379 48.66,20.411 L51.734,21.953 C51.923,22.047 52.316,22.028 52.548,21.911 L56.178,20.095 C56.302,20.032 56.328,19.976 56.328,19.964 C56.328,19.961 56.313,19.936 56.26,19.909 L53.185,18.367 C53.102,18.324 52.983,18.3 52.851,18.3 C52.679,18.3 52.503,18.339 52.37,18.406 L48.743,20.221 C48.618,20.28 48.591,20.34 48.591,20.351 Z M58.967,15.156 C58.967,15.159 58.981,15.184 59.039,15.213 L62.111,16.757 C62.193,16.798 62.311,16.82 62.444,16.82 C62.614,16.82 62.791,16.782 62.923,16.718 L66.556,14.899 C66.679,14.839 66.702,14.78 66.702,14.771 C66.702,14.765 66.69,14.741 66.634,14.713 L63.563,13.169 C63.48,13.127 63.36,13.106 63.227,13.106 C63.056,13.106 62.879,13.142 62.748,13.206 L59.118,15.026 C58.995,15.087 58.967,15.144 58.967,15.156 Z M38.215,25.545 C38.215,25.548 38.229,25.573 38.287,25.602 L41.358,27.146 C41.548,27.238 41.94,27.22 42.172,27.105 L45.804,25.288 C45.926,25.227 45.951,25.17 45.951,25.158 C45.951,25.152 45.938,25.131 45.881,25.1 L42.81,23.554 C42.728,23.518 42.605,23.494 42.474,23.494 C42.3,23.494 42.126,23.533 41.999,23.596 L38.364,25.411 C38.24,25.478 38.215,25.535 38.215,25.545 Z M53.781,17.753 C53.781,17.756 53.792,17.781 53.849,17.811 L56.924,19.354 C57.006,19.394 57.122,19.415 57.258,19.415 C57.429,19.415 57.606,19.379 57.736,19.313 L61.367,17.498 C61.491,17.432 61.517,17.375 61.517,17.368 C61.516,17.364 61.502,17.335 61.446,17.31 L58.375,15.763 C58.291,15.727 58.175,15.705 58.042,15.705 C57.869,15.705 57.695,15.738 57.563,15.807 L53.931,17.622 C53.809,17.685 53.781,17.746 53.781,17.753 Z M12.276,38.532 C12.276,38.535 12.289,38.563 12.345,38.59 L15.419,40.132 C15.605,40.228 16.002,40.21 16.228,40.093 L19.862,38.274 C19.984,38.211 20.009,38.152 20.009,38.143 C20.009,38.14 19.995,38.117 19.941,38.088 L16.869,36.542 C16.783,36.503 16.665,36.481 16.531,36.481 C16.359,36.481 16.186,36.518 16.053,36.581 L12.425,38.401 C12.3,38.468 12.276,38.524 12.276,38.532 Z M61.812,9.691 C61.731,9.648 61.61,9.627 61.477,9.627 C61.304,9.627 61.131,9.663 61.003,9.731 L57.37,11.546 C57.247,11.607 57.222,11.667 57.222,11.677 C57.222,11.677 57.233,11.704 57.29,11.729 L60.314,13.249 C60.396,13.292 60.516,13.315 60.649,13.315 C60.821,13.315 60.997,13.277 61.128,13.213 L64.762,11.393 C64.884,11.332 64.908,11.272 64.908,11.265 C64.908,11.259 64.894,11.237 64.84,11.21 L61.812,9.691 Z M90.503,8.487 C90.42,8.448 90.305,8.423 90.172,8.423 C89.995,8.423 89.823,8.461 89.693,8.526 L82.429,12.163 C82.301,12.224 82.277,12.285 82.277,12.291 C82.277,12.297 82.292,12.322 82.348,12.352 L85.423,13.894 C85.502,13.935 85.619,13.955 85.752,13.955 C85.927,13.955 86.102,13.918 86.229,13.854 L93.495,10.22 C93.621,10.157 93.648,10.097 93.648,10.087 C93.648,10.083 93.633,10.059 93.573,10.03 L90.503,8.487 Z M86.623,18.01 C86.623,18.004 86.611,17.979 86.555,17.948 L83.482,16.407 C83.398,16.367 83.281,16.344 83.148,16.344 C82.973,16.344 82.798,16.381 82.671,16.447 L79.037,18.261 C78.91,18.328 78.885,18.386 78.891,18.394 C78.891,18.4 78.904,18.422 78.956,18.449 L82.03,19.993 C82.11,20.036 82.231,20.059 82.364,20.059 C82.538,20.059 82.713,20.02 82.843,19.953 L86.476,18.139 C86.597,18.074 86.623,18.017 86.623,18.01 Z M39.93,41.381 C39.93,41.381 39.914,41.353 39.86,41.326 L36.784,39.782 C36.703,39.742 36.587,39.718 36.452,39.718 C36.281,39.718 36.103,39.755 35.975,39.822 L32.344,41.639 C32.219,41.703 32.195,41.76 32.195,41.77 C32.195,41.771 32.207,41.797 32.263,41.825 L35.338,43.37 C35.42,43.412 35.535,43.434 35.672,43.434 C35.842,43.434 36.016,43.393 36.149,43.33 L39.782,41.513 C39.905,41.45 39.93,41.392 39.93,41.381 Z M64.157,12.559 C64.157,12.563 64.172,12.587 64.228,12.616 L67.3,14.16 C67.485,14.252 67.878,14.235 68.114,14.12 L71.743,12.303 C71.864,12.242 71.894,12.182 71.894,12.173 C71.894,12.169 71.879,12.145 71.823,12.115 L68.748,10.571 C68.665,10.532 68.548,10.511 68.414,10.511 C68.241,10.511 68.069,10.55 67.936,10.611 L64.306,12.428 C64.184,12.491 64.157,12.548 64.157,12.559 Z M81.722,4.077 C81.639,4.038 81.521,4.016 81.388,4.016 C81.214,4.016 81.039,4.052 80.911,4.118 L74.684,7.236 C74.564,7.298 74.533,7.354 74.533,7.366 C74.533,7.369 74.55,7.393 74.602,7.423 L77.677,8.967 C77.756,9.008 77.879,9.029 78.01,9.029 C78.184,9.029 78.359,8.993 78.487,8.927 L84.715,5.809 C84.839,5.749 84.862,5.688 84.862,5.682 C84.862,5.676 84.853,5.651 84.794,5.622 L81.722,4.077 Z M46.525,38.136 L50.156,36.318 C50.279,36.255 50.306,36.198 50.306,36.191 C50.306,36.184 50.292,36.161 50.24,36.131 L47.16,34.587 C47.08,34.546 46.962,34.524 46.83,34.524 C46.656,34.524 46.482,34.565 46.351,34.628 L42.719,36.443 C42.597,36.506 42.572,36.564 42.572,36.573 C42.572,36.573 42.585,36.601 42.642,36.632 L45.712,38.173 C45.9,38.266 46.293,38.251 46.525,38.136 Z M72.465,25.151 L76.099,23.332 C76.214,23.272 76.245,23.211 76.245,23.201 C76.245,23.195 76.23,23.178 76.179,23.147 L73.104,21.602 C73.024,21.561 72.903,21.537 72.77,21.537 C72.598,21.537 72.42,21.576 72.288,21.643 L68.662,23.461 C68.538,23.522 68.515,23.577 68.515,23.589 C68.515,23.592 68.524,23.617 68.583,23.644 L71.655,25.186 C71.846,25.282 72.234,25.265 72.465,25.151 Z M81.437,20.604 C81.437,20.6 81.422,20.577 81.366,20.544 L78.296,19.006 C78.212,18.964 78.091,18.942 77.958,18.942 C77.784,18.942 77.612,18.98 77.479,19.045 L73.849,20.86 C73.722,20.924 73.699,20.983 73.699,20.99 C73.699,20.996 73.714,21.023 73.77,21.045 L76.845,22.591 C77.028,22.683 77.419,22.669 77.651,22.55 L81.286,20.737 C81.409,20.673 81.437,20.616 81.437,20.604 Z" id="Shape" fill="#E6E6F4"></path>
            </g>
            <g id="boy" transform="translate(228.000000, 90.000000)">
                <g id="Group" transform="translate(0.000000, 166.000000)" fill-rule="nonzero">
                    <g transform="translate(51.000000, 123.000000)" id="Shape">
                        <path d="M55,0.834 C55,0.834 54.608,7.484 56.582,22.076 C57.004,25.176 62.353,41.393 57.42,43.478 C48.967,47.047 36.688,38.264 21.884,35.138 C7.073,32.005 5.593,20.752 11.301,19.076 C17.963,17.122 19.825,17.729 30.167,18.999 C38.938,20.077 36.764,12.561 36.764,12.561 L35.833,3.999" fill="#F2AE9C"></path>
                        <path d="M6.465,19.238 C10.153,18.507 27.596,21.054 32.295,21.754 C28.595,22.144 30.374,27.641 36.667,33.512 C40.846,37.399 55.789,38.063 57.063,26.686 C57.705,31.575 62.671,44.383 58.539,47.088 C47.275,54.461 34.107,43.572 19.303,40.442 C3.616,37.131 -6.304,21.769 6.465,19.238 Z" fill="#6CA4FF"></path>
                        <path d="M6.465,15.066 C10.153,14.335 29.968,17.801 34.667,18.5 C31.865,20.901 32.775,22.205 37.333,27.334 C42.666,33.334 54,33.834 57.833,26.167 C59.667,31.167 62.672,40.211 58.539,42.916 C47.275,50.29 34.107,39.4 19.303,36.27 C3.616,32.959 -6.304,17.597 6.465,15.066 Z" fill="#35343F"></path>
                    </g>
                    <path d="M58.549,127.978 C58.549,127.978 58.549,151.545 60.801,166.14 C61.281,169.237 67.553,188.036 61.927,190.123 C52.288,193.694 38.294,184.911 21.418,181.782 C4.536,178.653 2.671,164.816 9.176,163.14 C16.774,161.185 21.923,162.79 31.833,162.333 C42.666,161.833 39.666,153.165 39.666,153.165" id="Shape" fill="#F2AE9C"></path>
                    <path d="M136.986,26.693 C153.187,30.629 110.14,58.673 110.897,84.242 C111.651,109.811 104.625,110.474 105.5,129 C105.826,135.936 87.673,137.551 86.167,131.521 C84.665,125.492 78.513,79.65 77,66.5 C75.485,53.351 69.585,14.914 84,3 C98.164,-8.705 136.986,26.693 136.986,26.693 Z" id="Shape" fill="#35343F"></path>
                    <path d="M131,73 C131,73 109.515,53.689 45,30 C14.63,18.848 22,66.5 22,66.5 C22,66.5 27.237,106.273 29.5,116.5 C31.767,126.728 38.166,154 38.166,154 C38.166,154 41.5,161.666 52.833,159.5 C55.088,159.068 60.761,158.125 61.5,151.334 C62.748,139.844 60.209,116.313 57.833,104.834 C54.052,86.572 56.013,82.458 54.5,76.125 C52.99,69.792 54.439,72.713 57.667,69.334 C63.859,62.855 113.884,98.072 122.181,82.023 C124.195,78.127 131,73 131,73 Z" id="Shape" fill="#35343F"></path>
                    <path d="M6.647,162.139 C9.387,162.409 29.568,165.032 34.926,165.733 C30.707,166.12 34.239,173.014 41.415,178.881 C46.178,182.772 61.045,184.444 62.065,173.824 C62.802,178.718 66.653,189.5 62.769,192.243 C50.906,200.617 34.78,189.394 18.038,185.597 C-6.004,180.145 -1.367,161.357 6.647,162.139 Z" id="Shape" fill="#6CA4FF"></path>
                    <path d="M6.647,157.968 C11.186,158.412 33.93,160.2 37.5,160.666 C34.166,164.834 38.49,173.064 44.729,175.34 C50.519,177.451 59.5,178.166 62.833,172.834 C63.57,177.727 66.654,185.328 62.77,188.071 C50.907,196.445 34.781,185.222 18.039,181.426 C-6.004,175.974 -1.367,157.186 6.647,157.968 Z" id="Shape" fill="#35343F"></path>
                </g>
                <path d="M268.407,380.498 C269.106,382.305 270.727,387.144 268.924,387.845 C267.12,388.545 265.251,384.83 264.552,383.025 L216.334,254.669 C215.635,252.867 211.677,245.618 213.482,244.921 C215.283,244.227 219.269,244.36 219.965,246.162 L268.407,380.498 Z" id="Shape" fill="#B2C1D8" fill-rule="nonzero"></path>
                <path d="M40.5,371.5 C39,377.5 37.771,379.287 35.884,378.863 C33.995,378.446 35.078,372.888 35.5,371 L60.5,251 C60.922,249.112 62.854,247.159 64.743,247.581 C66.63,248.004 67.424,250.614 67,252.5 L40.5,371.5 Z" id="Shape" fill="#BCCFE8" fill-rule="nonzero"></path>
                <path d="M156.329,433.606 C156.405,435.544 155.865,439.078 153.936,439.156 C152.001,439.231 151.81,435.939 151.736,434.005 L146.03,291.006 C145.953,289.076 145.947,286.049 147.882,285.974 C149.811,285.901 153.543,287.323 153.617,289.252 L156.329,433.606 Z" id="Shape" fill="#B2C1D8" fill-rule="nonzero"></path>
                <path d="M242.83,262.319 L245.552,254.046 L241.448,254.046 C240.461,253.264 239.296,252.527 237.949,251.849 L162.865,213.82 C152.497,208.565 135.488,208.607 124.875,213.903 L47.998,252.292 C46.369,253.103 44.987,253.997 43.852,254.941 L39.93,253.329 L39.93,261.519 C39.669,265.092 42.197,268.686 47.549,271.4 L122.639,309.428 C133.004,314.678 150.015,314.639 160.623,309.339 L234.781,272.76 C240.533,269.885 243.22,266.06 242.83,262.319 Z" id="Shape" fill="#1950D8" fill-rule="nonzero"></path>
                <path d="M237.949,241.911 C248.317,247.164 248.116,255.715 237.501,261.011 L160.623,299.4 C150.015,304.704 133.004,304.743 122.639,299.491 L47.549,261.463 C37.184,256.213 37.383,247.655 47.998,242.357 L124.875,203.97 C135.488,198.671 152.497,198.63 162.865,203.88 L237.949,241.911 Z" id="Shape" fill="#4080FE" fill-rule="nonzero"></path>
                <g id="Group" transform="translate(1.000000, 0.000000)">
                    <path d="M127.5,122.5 C127.5,122.5 119.5,117 113,110 C109.155,105.859 102.5,98.75 91.75,92.25 C91.75,92.25 83.339,88.879 85.25,88.5 C87.159,88.121 88,84.775 88,82.5 C88,80.225 87.75,67.75 87.75,67.75 C87.75,67.75 91.04,68.507 93.75,72 C95.542,74.31 98.589,80.41 101.25,82.75 C107.198,87.982 132.812,101.482 136.25,103" id="Shape" fill="#F9BFAC" fill-rule="nonzero"></path>
                    <path d="M115.917,116.667 L150.917,144 C150.917,144 176.754,121.255 169.583,118.667 C162.413,116.078 132.83,99.099 129.25,97 C122,92.75 108.804,107.208 115.917,116.667 Z" id="Shape" fill="#A9BBE3" fill-rule="nonzero"></path>
                    <path d="M47.334,236.668 C47.334,236.668 56.168,233.062 85,214 C95.745,206.896 106.094,186.78 106.094,186.78 C106.094,186.78 142.134,199.487 150.142,205.047 C158.152,210.607 169.364,248.73 162.956,254.289 C156.55,259.85 175.791,266.066 156.001,276 C144.424,281.812 140.919,282.146 104.667,268.668 C96.565,265.655 47.334,236.668 47.334,236.668 Z" id="Shape" fill="#35343F" fill-rule="nonzero"></path>
                    <path d="M114.702,41.087 C114.702,41.087 106.034,49.936 107.564,52.591 C109.093,55.246 114.829,57.142 114.829,57.142" id="Shape" fill="#ED9C8C" fill-rule="nonzero"></path>
                    <path d="M209.571,154.882 C205.659,168.857 195.077,149.67 192.362,185.486 C190.987,203.601 197.21,209.383 195.607,211.966 C194.004,214.555 182.619,259.069 165.5,256.999 C148.38,254.933 131.5,251.999 122.5,241.999 C115.192,233.88 111.614,226.153 113.42,206.063 C114.789,190.866 126.227,184.75 122.381,168.154 C120.461,159.873 112.274,140.947 117,129.998 C120.963,120.819 128.025,115.625 137.677,106.749 C145.052,99.966 156.316,94.853 167.049,88.232 C174.505,83.627 181.253,74.935 188.334,74.998 C202.562,75.123 208.903,88.319 210.667,100.665 C213.001,117 213.238,141.788 209.571,154.882 Z" id="Shape" fill="#DCDEF4" fill-rule="nonzero"></path>
                    <path d="M146,93.667 C146,97.08 130.203,111.037 133,109.75 C143.323,104.999 168.584,104.583 177.334,99.333 C193.359,89.718 184.035,80.594 176.014,79.457 C172.5,79.167 146,84.223 146,93.667 Z" id="Shape" fill="#A9BBE3" fill-rule="nonzero"></path>
                    <path d="M145,92.334 C145,95.747 133.88,108.373 136.677,107.085 C147,102.334 166.584,101.917 175.334,96.667 C191.359,87.052 183.035,79.262 175.014,78.124 C171.5,77.834 145,82.89 145,92.334 Z" id="Shape" fill="#FFFFFF" fill-rule="nonzero"></path>
                    <path d="M150.062,7.813 C139.23,7.813 123.428,6.375 117.409,15.701 C114.606,20.031 113.069,32.712 113.202,41.868 C113.265,46.207 111.713,54.754 112,57.5 C112.416,61.503 114.104,62.03 114.333,65 C115.48,79.791 127.576,77.785 137.437,79.249 C138.089,80.046 142.151,84.508 145.75,93.25 C147.5,97.5 155.678,92.667 160.25,89.75 C174.75,80.5 178,82.5 170,70.25 C172.5,64.75 173.236,54.951 174.001,50.5 C177.616,29.639 168.304,7.813 150.062,7.813 Z" id="Shape" fill="#F9BFAC" fill-rule="nonzero"></path>
                    <path d="M127.351,64.244 L131.559,66.14 C133.841,62.729 130.963,46.328 138.06,46.04 C142.519,45.859 146.667,55 141.667,60.333 C141.667,60.333 155.334,73.166 160,74.666 C166.425,76.731 172.501,69.999 172.501,69.999 C172.501,69.999 171.047,67.806 173.001,61.666 C174.305,57.57 179.282,51.048 181.272,41.488 C185.05,23.328 185.634,9.402 158.327,5.839 C134.77,2.769 120.086,14.562 130.411,35.42 C132.035,38.703 127.61,59.888 127.351,64.244 Z" id="Shape" fill="#35343F" fill-rule="nonzero"></path>
                    <path d="M145,145 C145,145 151.521,162.648 137.77,194.504 C131.942,208.005 113.841,226.165 113.751,225.834 C112.417,220.917 112.917,211.167 112.917,211.167" id="Shape" fill="#A9BBE3" fill-rule="nonzero"></path>
                    <path d="M75,175.833 C66.669,172.22 58.183,169.41 52.429,165.848 C50.251,164.5 47.053,162.592 46.334,162 C45.615,161.408 45.145,160.497 44.531,158.707 C43.917,156.917 42.129,149.621 40.936,147.729 C39.463,145.391 39.168,141.3 39.168,141.3 C35.583,141.916 36.221,145.099 36.516,148.898 C36.685,151.08 35.883,153.065 35.168,154.363 C34.75,154.999 28.397,150.664 24.417,147.583 C20.035,144.186 16.506,142.187 14.083,140.75 C12.306,139.701 10.241,140.761 11.324,142.011 C13.601,144.639 21.917,151.583 21.917,151.583 C21.917,151.583 22.917,152.166 21.943,152.335 C20.86,152.523 7.198,147.149 4.213,146.12 C1.221,145.095 0.529,146.497 1.25,147.499 C1.88,148.377 11.186,153.116 15.579,154.948 C15.916,155.416 15.167,155.165 14.25,154.749 C12.53,153.968 6.518,150.895 3.586,150.071 C2.263,149.699 1.581,150.962 2.083,151.583 C3.833,153.75 8.824,156.488 14.172,159.521 C15.135,160.067 18.459,162.361 18.147,163.135 C17.717,164.193 5.975,161.888 5.001,162.083 C3.751,162.333 4.142,163.755 5.001,164.083 C8.004,165.229 14.421,166.17 17.725,167.12 C21.973,168.324 25.413,171.137 30.77,173.103 C31.455,173.355 32.554,173.609 33.822,173.784 C43.07,179.611 58.886,190.808 66.752,195.166 C77.035,203.107 83.334,179.441 75,175.833 Z" id="Shape" fill="#F9BFAC" fill-rule="nonzero"></path>
                    <path d="M77.334,174 C83.203,176.201 92.782,179.811 97,181 C97,181 99.104,178.194 101.25,175.5 C109.911,164.626 111.751,145.333 116.584,131.167 C117.935,127.208 129.754,115.858 132.76,113.797 C144.769,105.564 152.85,129.026 148,148 C136.652,192.403 114.238,213.629 108.995,214.044 C103.259,214.496 84,207.25 66.5,198 C57,192.25 68.104,170.537 77.334,174 Z" id="Shape" fill="#DCDEF4" fill-rule="nonzero"></path>
                    <path d="M110.75,14.25 C110.5,19.25 113.5,28.25 132.25,31.75 C152.025,35.441 150.333,43.667 150.333,43.667 C150.333,43.667 183.057,37.065 180.763,26.826 C178.468,16.587 175.027,8.243 160.877,6.347 C146.728,4.451 145.043,5.88 135,5.501 C121.75,5.001 117.552,0.351 117.552,0.351 C117.552,0.351 111.174,5.781 110.75,14.25 Z" id="Shape" fill="#35343F" fill-rule="nonzero"></path>
                    <g transform="translate(56.000000, 61.000000)">
                        <g opacity="0.5" transform="translate(1.000000, 24.000000)" fill="#45536D" fill-rule="nonzero" id="Shape">
                            <path d="M0.579,2.061 L4.237,0.34 L8.213,3.026 C8.267,2.998 8.317,2.969 8.373,2.942 C13.581,0.362 22.183,0.412 27.592,3.056 C32.998,5.697 33.163,9.93 27.957,12.51 C22.752,15.089 14.146,15.04 8.739,12.396 C4.938,10.539 3.73,7.897 5.154,5.596 L0.579,2.061 Z"></path>
                        </g>
                        <path d="M11.957,6.484 C11.957,6.484 7.066,4.411 4.812,5.187 C2.212,6.083 -0.654,7.726 0.886,12.792 C2.175,17.031 6.178,22.366 9.812,26.375 C13.278,30.198 16.096,31.909 16.096,31.909 L13.803,21.77 C13.803,21.77 13.297,22.709 11.475,21.395 C9.358,19.866 7.435,17.649 5.763,14.959 C3.903,11.964 3.55,9.224 3.998,8.969 C4.69,8.577 4.533,8.765 6.373,9.288 C8.171,9.798 10.031,11.327 10.737,11.709 C11.729,12.246 11.892,13.077 11.892,13.077 L11.957,6.484 Z" id="Shape" fill="#FF8F8F" fill-rule="nonzero"></path>
                        <g id="Clipped" transform="translate(0.000000, 5.000000)">
                            <mask id="mask-6" fill="white">
                                <use xlink:href="#path-5"></use>
                            </mask>
                            <g id="SVGID_7_"></g>
                            <path d="M4.674,3.794 C1.464,3.181 1.209,6.119 2.875,9.688 C4.545,13.257 11.38,21.748 14.268,22.258 C17.026,22.745 8.261,11.434 6.696,8.94 C5.271,6.669 4.674,3.794 4.674,3.794 Z" id="Shape" fill="#D84532" fill-rule="nonzero" mask="url(#mask-6)"></path>
                        </g>
                        <path d="M7.538,7.409 C7.187,5.537 8.423,3.628 11.277,2.214 C16.484,-0.365 25.087,-0.315 30.495,2.328 C33.372,3.733 34.611,5.557 34.5,7.375 L34.5,8.125 L31.493,32.171 L31.477,32.171 C31.523,33.478 30.558,34.778 28.569,35.764 C24.583,37.74 17.992,37.702 13.849,35.678 C11.717,34.636 10.651,33.271 10.661,31.923 L7.509,7.409 L7.538,7.409 Z" id="Shape" fill="#FF8F8F" fill-rule="nonzero"></path>
                        <path d="M11.277,1.964 C6.07,4.544 6.234,8.776 11.642,11.419 C17.049,14.063 25.655,14.112 30.86,11.533 C36.066,8.953 35.901,4.72 30.495,2.079 C25.087,-0.565 16.484,-0.615 11.277,1.964 Z" id="Shape" fill="#FFFFFF" fill-rule="nonzero"></path>
                        <path d="M12.402,2.568 C7.827,4.834 7.971,8.552 12.723,10.874 C17.472,13.196 25.034,13.24 29.606,10.974 C34.18,8.707 34.036,4.988 29.286,2.667 C24.534,0.345 16.978,0.301 12.402,2.568 Z" id="Shape" fill="#CAD2D8" fill-rule="nonzero"></path>
                        <g id="Clipped" transform="translate(9.000000, 0.000000)">
                            <mask id="mask-8" fill="white">
                                <use xlink:href="#path-7"></use>
                            </mask>
                            <g id="SVGID_9_"></g>
                            <path d="M3.402,10.599 C-1.173,12.865 -1.029,16.582 3.723,18.904 C8.472,21.226 16.034,21.27 20.606,19.004 C25.18,16.738 25.036,13.018 20.286,10.698 C15.534,8.375 7.978,8.332 3.402,10.599 Z" id="Shape" fill="#0C1417" fill-rule="nonzero" mask="url(#mask-8)"></path>
                        </g>
                    </g>
                    <path d="M75.19,85.021 C75.19,85.021 80.078,85.242 82.501,85 C87.5,84.5 93.5,77 93.5,77 L105.5,94.5 L100.5,94 C100.5,94 90,93.5 85.5,91 C82.615,89.397 75.383,87.802 71.039,87.802 C69.882,87.802 70.76,85.605 75.19,85.021 Z" id="Shape" fill="#F9BFAC" fill-rule="nonzero"></path>
                </g>
                <path d="M243.593,224.988 C241.057,244.131 171.5,247 177.5,287.5 L130,296 C130,296 139.348,295.349 145,281.75 C150.669,268.114 152.646,241.502 155.919,218.651 C157.329,208.804 159.67,190.194 159.67,190.194 C162.206,171.043 177.005,149.385 192.733,141.813 L233.985,121.427 C239.21,118.913 243.881,118.267 247.696,119.23 C255.354,121.169 259.276,126.437 259.466,126.756 L243.593,224.988 Z" id="Shape" fill="#4080FE" fill-rule="nonzero"></path>
                <path d="M251.875,120.625 C247.196,119.104 242.543,120.247 237.318,122.76 L196.066,143.146 C180.337,150.719 165.286,171.473 162.75,190.625 C162.75,190.625 160.035,210.403 158.625,220.25 C155.353,243.1 152.794,270.989 147.125,284.625 C141.473,298.224 135.708,298.593 132,298.5 C127,298.375 121.625,295 113.25,291.125 C104.875,287.25 49,258.75 44.5,255.875 C40.775,253.496 40.125,251.25 40.375,249.625" id="Shape" stroke="#E1F0FF" stroke-width="0.5"></path>
                <path d="M248.201,250.501 C248.201,250.501 246.768,266.257 236.386,271.271 L178.41,294.644 C162.684,302.218 151.212,307.672 150.677,302.433 L162,216.48 L165.04,193.415 C167.573,174.268 182.376,152.611 198.102,145.034 L239.356,124.649 C255.076,117.079 265.774,126.457 263.24,145.602 L248.201,250.501 Z" id="Shape" fill="#1950D8" fill-rule="nonzero"></path>
                <path d="M161.825,218.637 C161.825,218.637 157.706,288.752 140.247,299.67 C129.125,306.625 114.125,296.25 114.125,296.25 C114.125,296.25 120.205,305.106 125.573,306.984 C130.945,308.862 154.041,308.862 158.337,305.64 C162.634,302.418 161.825,218.637 161.825,218.637 Z" id="Shape" fill="#1950D8" fill-rule="nonzero"></path>
                <path d="M113,57.5 C113,57.5 114.649,63.756 121.5,64 C128.351,64.244 129.5,58.5 129.5,58.5 L133.5,58.5 C133.5,58.5 135.167,68.667 136.667,73.667 C138.167,78.667 141.5,83 141.5,83 C141.5,83 134.5,90.5 126,89.5 C117.5,88.5 112.5,83 112.5,76.5 C112.5,70 113,57.5 113,57.5 Z" id="Shape" fill="#35343F" fill-rule="nonzero"></path>
                <g id="Group" transform="translate(106.000000, 36.000000)">
                    <path d="M1,6.333 L27.667,10.333" id="Shape" stroke="#35343F" stroke-width="2" stroke-linecap="round" stroke-linejoin="round"></path>
                    <path d="M6.874,17.012 C6.294,17.012 5.239,16.949 4.071,16.578 C0.294,15.376 0,8.432 0,6.333 C0,2.776 6.521,0.575 7.829,0.169 C8.358,0.003 8.375,0.312 8.312,1.312 C8.278,1.863 8.463,2.148 7.937,2.312 C5.347,3.117 1.999,4.793 1.999,6.333 C1.999,9.938 2.837,14.086 4.677,14.671 C6.002,15.093 7.151,15.004 7.163,15.003 C7.72,14.957 7.471,15.45 7.436,15.999 C7.375,17 7.151,17.012 6.874,17.012 Z" id="Shape" fill="#35343F" fill-rule="nonzero"></path>
                </g>
            </g>
            <g id="imac_1_" transform="translate(99.000000, 0.000000)" fill-rule="nonzero">
                <path d="M119.667,211.333 L85.1,196.356 L85.191,196.299 C85.191,196.299 79.759,194.564 79.143,193.074 C78.97,192.665 79.007,192.074 79.166,191.412 L108.18,131.776 L80.756,146.294 L54.945,197.108 C54.945,197.108 51.705,203.535 51.078,205.171 C50.474,206.75 50.709,208.868 51.749,209.877 C51.946,210.074 52.623,210.648 52.926,210.818 L83.562,231.037 C85.379,232.048 88.458,232.041 90.436,231.02 L119.106,216.224 C121.085,215.202 121.488,212.346 119.667,211.333 Z" id="Shape" fill="#292830"></path>
                <path d="M119.404,210.592 L85.338,194.52 L85.428,194.463 C85.428,194.463 81.235,192.738 80.623,191.262 C80.449,190.85 80.486,190.268 80.644,189.606 L109.463,130.37 L82.225,144.794 L56.586,196.068 C56.586,196.068 52.182,203.881 52.046,205.614 C51.924,207.204 52.376,207.995 53.223,208.708 C53.418,208.903 53.659,209.091 53.959,209.255 L83.811,228.965 C85.615,229.972 88.674,229.963 90.638,228.951 L119.116,214.252 C121.082,213.237 121.211,211.599 119.404,210.592 Z" id="Shape" fill="url(#linearGradient-9)"></path>
                <path d="M159.436,0.642 C159.384,0.61 159.339,0.574 159.289,0.547 C158.735,0.252 158.026,0.266 157.253,0.651 L3.427,77.566 C1.656,78.452 0.22,80.962 0.22,83.175 L0.22,220.977 C0.22,222.261 0.703,223.158 1.455,223.516 L4.381,224.95 C4.381,224.95 9.747,215.759 8.745,216.296 C8.499,216.429 8.062,216.509 7.505,216.511 L152.393,144.065 C154.165,143.18 155.597,140.67 155.597,138.459 L155.597,7.129 C156.934,7.436 158.045,7.364 158.501,7.118 C159.506,6.587 162.183,1.988 162.183,1.988 L159.436,0.642 Z" id="Shape" fill="#3F3F49"></path>
                <path d="M37.021,97.753 L1.168,79.856 C0.582,80.874 0.218,82.06 0.218,83.175 L0.218,220.977 C0.218,222.261 0.701,223.158 1.453,223.516 L4.379,224.95 C4.379,224.95 9.745,215.759 8.743,216.296 C8.497,216.429 8.06,216.509 7.503,216.511 L152.391,144.065 C154.163,143.18 155.595,140.67 155.595,138.459 L155.595,12.043 L37.021,97.753 Z" id="Shape" fill="#292830"></path>
                <path d="M163.407,142.317 C163.407,144.532 161.972,147.044 160.204,147.93 L6.376,224.841 C4.606,225.726 3.17,224.65 3.17,222.439 L3.17,84.634 C3.17,82.423 4.607,79.911 6.376,79.026 L160.204,2.111 C161.973,1.225 163.407,2.304 163.407,4.515 L163.407,142.317 Z" id="Shape" fill="#3C3C49"></path>
                <path d="M163.407,122.289 L163.407,4.516 C163.407,2.305 161.972,1.225 160.204,2.112 L6.376,79.027 C4.606,79.912 3.17,82.424 3.17,84.635 L3.17,202.409 L163.407,122.289 Z" id="Shape" fill="#0F0E16"></path>
                <polygon id="Shape" fill="#FFFFFF" points="158.279 118.443 8.301 193.434 8.301 84.476 158.279 9.482"></polygon>
            </g>
            <g id="Group" transform="translate(276.000000, 52.000000)" fill-rule="nonzero">
                <g>
                    <g transform="translate(0.000000, 38.000000)">
                        <path d="M52.074,15.448 L34.511,15.356 L34.511,15.465 C31.947,14.957 29.202,14.677 26.35,14.677 C23.498,14.677 20.753,14.957 18.189,15.465 L18.189,15.191 L0.626,15.191 L0.626,30.167 L0.637,30.167 C0.869,38.461 12.289,45.144 26.351,45.144 C40.558,45.144 52.076,38.324 52.076,29.911 C52.076,29.852 52.07,29.794 52.069,29.735 L52.076,29.735 L52.076,15.448 L52.074,15.448 Z" id="Shape" fill="#4080FE"></path>
                        <ellipse id="Oval" fill="#66A4FF" cx="26.35" cy="15.448" rx="25.725" ry="15.233"></ellipse>
                    </g>
                    <g transform="translate(0.000000, 19.000000)">
                        <path d="M52.074,15.809 L34.511,15.718 L34.511,15.827 C31.947,15.319 29.202,15.038 26.35,15.038 C23.498,15.038 20.753,15.319 18.189,15.827 L18.189,15.553 L0.626,15.553 L0.626,30.53 L0.637,30.53 C0.869,38.823 12.289,45.506 26.351,45.506 C40.558,45.506 52.076,38.686 52.076,30.274 C52.076,30.214 52.07,30.155 52.069,30.098 L52.076,30.098 L52.076,15.809 L52.074,15.809 Z" id="Shape" fill="#4080FE"></path>
                        <ellipse id="Oval" fill="#66A4FF" cx="26.35" cy="15.809" rx="25.725" ry="15.233"></ellipse>
                    </g>
                    <g>
                        <path d="M52.074,16.171 L34.511,16.08 L34.511,16.189 C31.947,15.681 29.202,15.402 26.35,15.402 C23.498,15.402 20.753,15.681 18.189,16.189 L18.189,15.915 L0.626,15.915 L0.626,30.892 L0.637,30.892 C0.869,39.186 12.289,45.868 26.351,45.868 C40.558,45.868 52.076,39.048 52.076,30.635 C52.076,30.576 52.07,30.518 52.069,30.459 L52.076,30.459 L52.076,16.171 L52.074,16.171 Z" id="Shape" fill="#4080FE"></path>
                        <ellipse id="Oval" fill="#66A4FF" cx="26.35" cy="16.171" rx="25.725" ry="15.233"></ellipse>
                    </g>
                </g>
                <ellipse id="Oval" fill="#89C64E" cx="26.35" cy="16.02" rx="18.173" ry="10.761"></ellipse>
                <path d="M26.35,9.66 C35.113,9.66 42.424,13.333 44.14,18.221 C44.391,17.51 44.524,16.774 44.524,16.02 C44.524,10.077 36.386,5.258 26.35,5.258 C16.314,5.258 8.177,10.076 8.177,16.02 C8.177,16.774 8.31,17.51 8.56,18.221 C10.276,13.333 17.587,9.66 26.35,9.66 Z" id="Shape" fill="#C9FF8F"></path>
            </g>
            <path d="M166.331,96.72 C164.886,96.552 163.229,96.88 161.457,97.787 C158.331,99.387 155.539,102.434 153.692,105.924 C151.833,104.331 149.041,104.142 145.909,105.745 C144.149,106.646 142.493,108.012 141.042,109.663 C137.929,113.219 135.823,118.067 135.823,122.404 C135.823,123.643 136.002,124.739 136.324,125.685 C138.053,133.667 153.693,136.834 153.693,136.834 C153.693,136.834 169.314,117.666 171.049,107.911 C171.371,106.636 171.55,105.356 171.55,104.118 C171.55,99.78 169.443,97.096 166.331,96.72 Z" id="Shape" fill="#FF7373" fill-rule="nonzero"></path>
            <g id="Group" transform="translate(178.000000, 70.000000)" fill="#A9BBE3" fill-rule="nonzero">
                <path d="M15.261,33.67 C15.261,34.709 14.826,37.347 13.33,39.905 C12.488,41.364 10.899,43.43 8.407,44.681 C8.345,44.712 8.282,44.743 8.22,44.737 C6.194,45.715 4.482,45.921 3.111,45.419 C1.958,44.96 1.366,44.143 1.086,43.668 C0.93,43.439 0.836,43.102 0.836,42.755 C0.836,41.68 1.552,40.473 2.393,40.051 C3.017,39.738 3.578,39.918 3.795,40.538 C3.92,40.706 4.263,41.188 4.948,41.459 C5.82,41.751 6.942,41.572 8.281,40.939 C11.989,39.154 12.176,35.257 12.176,35.218 C12.176,34.334 11.677,33.509 10.96,33.176 C10.151,32.775 9.029,33.186 7.783,33.618 C6.07,34.208 4.138,34.91 2.55,33.709 C1.054,32.539 0.494,30.206 1.148,27.303 C1.802,24.284 3.672,21.231 5.976,19.536 C6.537,19.062 7.161,18.71 7.846,18.367 C9.996,17.327 11.803,17.149 13.205,17.829 C14.357,18.327 14.887,19.29 15.074,19.696 C15.199,19.903 15.261,20.141 15.261,20.488 C15.261,21.525 14.576,22.714 13.736,23.136 C13.112,23.448 12.552,23.308 12.302,22.703 L12.27,22.719 C12.27,22.679 12.053,22.135 11.366,21.787 C10.744,21.485 9.591,21.334 7.783,22.203 C7.347,22.384 6.942,22.625 6.599,22.912 C5.415,23.815 4.418,25.391 4.077,26.984 C3.889,27.771 3.764,29.178 4.762,29.945 C5.54,30.516 6.536,30.246 8.157,29.663 C9.653,29.143 11.365,28.514 12.861,29.223 C14.327,29.911 15.261,31.671 15.261,33.67 Z" id="Shape"></path>
                <path d="M16.847,27.033 C16.847,19.808 21.613,11.343 27.626,8.324 C33.639,5.305 38.406,8.986 38.406,16.21 C38.406,19.093 37.69,22.105 36.474,24.943 L38.718,26.43 C39.31,26.864 39.31,28.055 38.687,29.137 C38.095,30.165 37.128,30.65 36.537,30.218 L34.388,28.798 C32.549,31.565 30.182,33.869 27.627,35.151 C21.613,38.169 16.847,34.451 16.847,27.033 Z M32.143,22.045 L34.262,23.48 C34.979,21.621 35.416,19.633 35.416,17.711 C35.416,12.446 31.895,9.909 27.626,12.051 C23.358,14.194 19.869,20.25 19.869,25.515 C19.869,30.973 23.359,33.564 27.626,31.421 C29.309,30.576 30.897,29.087 32.175,27.293 L29.963,25.828 C29.34,25.372 29.34,24.181 29.963,23.139 C30.555,22.073 31.521,21.588 32.143,22.045 Z" id="Shape"></path>
                <path d="M55.215,19.252 C55.215,20.328 54.498,21.533 53.656,21.956 L42.907,27.352 C42.876,27.368 42.876,27.368 42.845,27.383 L42.814,27.399 C41.942,27.837 41.257,27.335 41.257,26.259 L41.257,3.277 C41.257,2.201 41.942,1.012 42.814,0.574 C43.655,0.151 44.372,0.637 44.372,1.713 L44.372,22.774 L53.656,18.114 C54.498,17.69 55.215,18.176 55.215,19.252 Z" id="Shape"></path>
            </g>
        </g>
    </g>
</svg>