<?xml version="1.0" encoding="utf-8"?>
<!-- Generator: Adobe Illustrator 18.0.0, SVG Export Plug-In . SVG Version: 6.00 Build 0)  -->
<!DOCTYPE svg PUBLIC "-//W3C//DTD SVG 1.1//EN" "http://www.w3.org/Graphics/SVG/1.1/DTD/svg11.dtd">
<svg version="1.1" id="Layer_1" xmlns="http://www.w3.org/2000/svg" xmlns:xlink="http://www.w3.org/1999/xlink" x="0px" y="0px"
	 viewBox="0 0 520 37" enable-background="new 0 0 520 37" xml:space="preserve">
<g>
	<path d="M519.2,26.2h-0.7c-0.4,1.5-3.2,6-4.4,7.3c-1,1.1-5.2,1.4-8.2,1.4c-5.7,0-6.1-0.4-6.1-4.7V4.9c0-1.1,0.3-2.1,1.6-2.5
		c0.9-0.3,2.8-0.7,3.7-0.7V1h-14.5v0.6c0.9,0.1,2.6,0.6,3.5,1c1.3,0.6,1.6,1.4,1.6,2.5v27c0,1.1-0.4,2.1-1.6,2.5
		c-0.7,0.3-2.6,0.5-3.5,0.5v0.6h27.8L519.2,26.2z M471.6,22h-12l6-15.3L471.6,22z M485.2,35.8v-0.6c-1-0.1-2.3-0.3-3.2-0.9
		c-1.2-0.7-1.7-1.5-2.1-2.5c-1.9-4.7-7.1-18.3-12.3-31.3h-0.7c-3.8,9.7-8.4,21.1-12,29.8c-0.8,1.9-2.1,3.3-3.3,4
		c-1,0.6-2.5,0.9-3.5,1v0.6h14v-0.6c-2.2-0.1-6.1-0.9-6.1-2.8c0-0.7,0.3-1.7,0.6-2.9c0.5-1.6,1.2-3.6,2.4-6.5H472l3.6,9
		c0.2,0.4,0.2,0.9,0.2,1.2c0,1.3-3.6,1.8-5.3,1.9v0.6H485.2z M438.6,25.5c0,4-1.2,9.4-8.2,9.4c-3.4,0-4.7-0.8-5.1-3.6V18
		c1.1-0.1,4.1-0.1,5.2-0.1C435.7,17.9,438.6,21.6,438.6,25.5 M436.9,8.6c0,4.4-1.8,8.3-7.6,8.3h-4V1.9c1.5-0.1,4-0.1,4.9-0.1
		C433.1,1.8,436.9,3.1,436.9,8.6 M443.7,26.7c0-7.1-7.6-9.2-10.6-9.5V17c4.9-1.5,8.8-3.2,8.8-8.9c0-5.4-5.6-7.1-8.8-7.1h-16.9v0.6
		c0.9,0.1,2.2,0.4,3.4,0.8c1.2,0.5,1.6,1.4,1.6,2.5v27.2c0,1.1-0.4,1.9-1.6,2.4c-0.7,0.3-2.8,0.6-3.7,0.7v0.6h17.7
		C436.4,35.8,443.7,33,443.7,26.7 M402.4,18.3c0,10.1-4.3,17.2-12.5,17.2c-8.2,0-12.5-7.2-12.5-16.7c0-11.6,5.2-17.6,12.5-17.6
		C397.2,1.3,402.4,7.3,402.4,18.3 M407.2,18.2c0-4.8-1.7-9.7-4.6-12.6c-4-3.9-8.1-5.4-12.7-5.4c-4.5,0-9,1.7-12.2,5
		c-3.1,3.2-5.1,7.6-5.1,13.5c0,5.5,2,9.7,5.2,12.9c3.3,3.2,7.3,4.9,11.9,4.9c5.1,0,9.2-1.8,12.4-5C405.8,27.9,407.2,23.4,407.2,18.2
		 M366.1,26.2h-0.7c-0.4,1.5-3.2,6-4.4,7.3c-1,1.1-5.2,1.4-8.2,1.4c-5.7,0-6.1-0.4-6.1-4.7V4.9c0-1.1,0.3-2.1,1.6-2.5
		c0.9-0.3,2.8-0.7,3.7-0.7V1h-14.5v0.6c0.9,0.1,2.6,0.6,3.5,1c1.3,0.6,1.6,1.4,1.6,2.5v27c0,1.1-0.4,2.1-1.6,2.5
		c-0.7,0.3-2.6,0.5-3.5,0.5v0.6h27.8L366.1,26.2z M331.4,21.4v-0.8h-16.5v0.8c0.9,0.1,4.2,0.3,5.7,0.8c1.3,0.5,1.7,1.8,1.7,3.3v2.9
		c0,3.5-3,7.1-9.4,7.1c-6.7,0-12.3-6.9-12.3-16.1c0-11.5,5.9-17.6,11.9-17.6c7.6,0,11.9,6.4,13.3,11.1h0.7l-0.3-12.2h-0.9l-1.7,3.1
		c-2.5-1.7-5.8-3.1-10.2-3.1c-9.1,0-17.7,8.6-17.7,18.9c0,11,8.3,17.2,14.9,17.2c4.4,0,8.7-1.2,12.3-2.5l2.6,3.1L326,37V24.8
		c0-1.1,0.3-2.1,1.5-2.7C328.5,21.6,330.5,21.5,331.4,21.4 M264.8,36.1h2.6V10.3c0-3.6,0.4-6,1.6-6.9c1-0.7,3.8-1.2,4.7-1.3V1h-15
		v1.1c1,0.1,4.1,0.9,5,1.6c1.1,0.8,1.7,3.2,1.7,6.9v15.7L245.6,1h-11.5v1.2c1.6,0.3,4,1.3,5.1,2.3c1.1,1,1.6,2.5,1.6,4v17.8
		c0,3.9-0.5,6.1-1.6,7c-0.9,0.6-3.8,1.3-4.7,1.4v1.1h15v-1.1c-0.9-0.1-4.1-0.9-5-1.6c-1.1-0.9-1.7-3.1-1.7-7v-18L264.8,36.1z
		 M210.5,35.1c-7.2,0-10.3-7.5-10.3-16.5c0-10.4,3.8-16.8,10.3-16.8c7.7,0,10.3,8.4,10.3,16.6C220.8,27.7,217.7,35.1,210.5,35.1
		 M210.3,36.7c5.3,0,9.4-1.7,12.7-4.7c3.7-3.5,5.5-8.3,5.5-13.8c0-5.4-2-10-5.2-13c-3.6-3.4-8-5-12.8-5c-4.9,0-9.3,1.7-12.7,5
		c-3.4,3.3-5.4,7.8-5.4,13.7c0,5.6,2.1,9.9,5.4,13C201.1,35,205.5,36.7,210.3,36.7 M167.9,35.8h17.3v-1.1c-0.9-0.1-3.1-0.6-3.7-0.8
		c-1.1-0.5-1.5-1.3-1.5-2.4V5.3c0-1.1,0.3-2,1.5-2.4c0.9-0.3,2.8-0.6,3.7-0.7V1h-17.3v1.1c1,0.1,2.8,0.6,3.7,1
		c1.2,0.5,1.6,1.3,1.6,2.4v26.1c0,1.1-0.4,2-1.6,2.4c-0.7,0.3-2.8,0.5-3.7,0.6V35.8z M148.3,36.5c7.2,0,12.2-4.5,12.2-10.8
		c0-5.4-2.7-7.7-6.9-9.5c-2-0.9-4.4-1.6-6.8-2.7c-3.3-1.5-4.9-3.3-4.9-6.3c0-3.5,2.6-5.4,5.2-5.4c5.3,0,8.3,4.1,10.6,10.4h1.2
		l-0.2-11.8h-1.8l-1.5,2.2c-1.8-1.2-4.9-2.4-8.1-2.4c-6.6,0-11,4.4-11,9.8c0,4.4,2,7.6,6.1,9.4c2.3,1,4.4,1.7,6.9,2.7
		c3.4,1.3,5.2,3.4,5.2,6.4c0,3.7-2.2,6.3-6.4,6.3c-5.9,0-9.6-5.8-11.6-11h-1.2l0.3,12.3h1.7l1.7-2.3
		C140.8,35.1,143.6,36.5,148.3,36.5 M121,36.1h2.6V10.3c0-3.6,0.4-6,1.6-6.9c1-0.7,3.8-1.2,4.7-1.3V1h-15v1.1c1,0.1,4.1,0.9,5,1.6
		c1.1,0.8,1.7,3.2,1.7,6.9v15.7L101.8,1H90.3v1.2c1.6,0.3,4,1.3,5.1,2.3c1.1,1,1.6,2.5,1.6,4v17.8c0,3.9-0.5,6.1-1.6,7
		c-0.9,0.6-3.8,1.3-4.7,1.4v1.1h15v-1.1c-0.9-0.1-4.1-0.9-5-1.6c-1.1-0.9-1.7-3.1-1.7-7v-18L121,36.1z M61.1,21.9
		c1.5-4.1,3.5-9.2,5.1-13.5l5.3,13.5H61.1z M60.5,23.7h11.8l3,7.8c0.2,0.4,0.2,0.8,0.2,1.1c0,1.3-3.3,1.9-5,2v1.1h17.3v-1.1
		c-0.9-0.1-2.3-0.4-3.3-1c-1.2-0.7-1.6-1.4-2-2.4c-1.5-3.6-8-20.9-12-30.8h-2.8C64.7,7.8,58.7,23.2,56,29.8c-0.7,1.8-1.6,3.2-2.9,4
		c-0.9,0.6-2.5,0.9-3.4,1v1.1h13.9v-1.1C61.9,34.6,58,33.8,58,32c0-0.7,0.2-1.8,0.6-3C58.7,28.5,59.4,26.5,60.5,23.7 M-0.8,35.8
		h15.1v-1.1c-0.9-0.1-4.2-0.9-5.1-1.6c-1.2-0.9-1.7-3-1.7-6.9V7.7l0.1-1.9l9.3,22.3c0.8,1.8,2.1,5.5,2.6,7.1H21L33.6,4.8v26.6
		c0,1.2-0.5,2-1.6,2.6c-0.7,0.4-3.4,0.6-4.3,0.7v1.1h18v-1.1c-0.9-0.1-3.2-0.5-3.8-0.8c-1.2-0.6-1.6-1.4-1.6-2.5v-26
		c0-1.1,0.3-2.1,1.6-2.5c0.9-0.3,2.8-0.6,3.7-0.7V1H32.5c-0.1,0.6-0.4,2.5-1.1,4.3L23,25.6L12.6,1H-0.5v1.1C0.8,2.2,2.8,2.6,4,3.6
		c1,0.8,1.5,2.1,1.5,4.2v18.6c0,3.9-0.5,6.1-1.6,7c-1.2,0.9-3.8,1.2-4.7,1.3V35.8z" stroke="#bbbbbb" fill="#bbbbbb"/>
</g>
</svg>
